<?xml version="1.0" encoding="utf-8"?>
<!-- Generator: Adobe Illustrator 17.0.0, SVG Export Plug-In . SVG Version: 6.00 Build 0)  -->
<!DOCTYPE svg PUBLIC "-//W3C//DTD SVG 1.1//EN" "http://www.w3.org/Graphics/SVG/1.1/DTD/svg11.dtd">
<svg version="1.1" id="图层_2" xmlns="http://www.w3.org/2000/svg" xmlns:xlink="http://www.w3.org/1999/xlink" x="0px" y="0px"
	 width="2240.759px" height="800px" viewBox="0 0 2240.759 800" enable-background="new 0 0 2240.759 800" xml:space="preserve">
<g opacity="0.8">
	<path fill="#FFFFFF" d="M1957.852,6L1957.852,6c19.236,0.002,37.039,9.816,47.617,26.246c1.184,1.844,2.258,3.738,3.193,5.631
		l0.076,0.154l0.085,0.149l186.891,329.474l0.021,0.038l0.022,0.037c25.516,43.506,39.003,93.414,39.003,144.328
		c0,38.078-7.325,75.013-21.773,109.779c-13.953,33.576-33.928,63.73-59.37,89.624c-25.434,25.886-55.048,46.209-88.018,60.402
		c-34.124,14.69-70.375,22.139-107.746,22.139H6V6H1957.852 M1957.852,0H0v800h1957.852c156.24,0,282.907-128.914,282.907-287.944
		c0-53.859-14.542-104.25-39.827-147.363L2014.041,35.219c-1.06-2.145-2.237-4.211-3.523-6.215
		C1999.276,11.544,1979.893,0.003,1957.852,0L1957.852,0z"/>
</g>
</svg>
