<?xml version="1.0" encoding="utf-8"?>
<!DOCTYPE svg PUBLIC "-//W3C//DTD SVG 1.1//EN" "http://www.w3.org/Graphics/SVG/1.1/DTD/svg11.dtd">
<svg version="1.1" xmlns="http://www.w3.org/2000/svg" xmlns:xlink="http://www.w3.org/1999/xlink" x="0px" y="0px"
	 width="90.852px" height="128.452px" viewBox="0 0 90.852 128.452" enable-background="new 0 0 90.852 128.452"
	 xml:space="preserve">
<g>
	<path fill="#e76b64" d="M5.75,59.694L5.75,59.694l0.01-0.017c0.202-0.369,0.41-0.735,0.623-1.099L36.392,5.675
		c0.177-0.359,0.374-0.705,0.59-1.039C38.788,1.844,41.894,0,45.425,0c3.54,0,6.652,1.853,8.457,4.657
		c0.207,0.322,0.396,0.653,0.566,0.998l30.008,52.902c4.06,6.922,6.395,15.014,6.395,23.661c0,25.535-20.338,46.234-45.425,46.234
		C20.338,128.452,0,107.753,0,82.219C0,74.039,2.089,66.36,5.75,59.694"/>
</g>
</svg>
