<?xml version="1.0" standalone="no"?>
<!DOCTYPE svg PUBLIC "-//W3C//DTD SVG 1.1//EN" "http://www.w3.org/Graphics/SVG/1.1/DTD/svg11.dtd" >
<!--
2013-9-30: Created.
-->
<svg>
<metadata>
Created by iconfont
</metadata>
<defs>

<font id="iconfont" horiz-adv-x="1024" >
  <font-face
    font-family="iconfont"
    font-weight="500"
    font-stretch="normal"
    units-per-em="1024"
    ascent="896"
    descent="-128"
  />
    <missing-glyph />
    
    <glyph glyph-name="rilijiantouyoushuang" unicode="&#59087;" d="M524.022306 269.230206c0.61708 0.548492 1.224949 1.111311 1.816445 1.701758 16.320372 16.319687 16.320372 42.775222 0 59.09491L136.690793 719.157475c-16.320372 16.319687-42.777018 16.319687-59.09739 0-16.312185-16.319687-16.312185-42.767036 0-59.086723l359.606938-359.591845L81.287693-55.418802c-18.350697-18.358113-20.005453-46.460148-3.693267-62.779835 16.320372-16.319687 44.431773-14.665001 62.78247 3.693112l381.768587 381.752564C522.793263 267.894791 523.41546 268.557894 524.022306 269.230206zM943.666068 330.026874 554.51811 719.157475c-16.320372 16.319687-42.777018 16.319687-59.09739 0-16.312185-16.319687-16.312185-42.767036 0-59.086723l359.606938-359.591845L499.113988-55.418802c-18.350697-18.358113-20.005453-46.460148-3.693267-62.779835 16.320372-16.319687 44.431773-14.665001 62.78247 3.693112l381.768587 381.752564c0.648803 0.647753 1.271 1.311879 1.876822 1.983167 0.61708 0.548492 1.224949 1.111311 1.816445 1.701758C959.986441 287.251651 959.986441 313.707187 943.666068 330.026874z"  horiz-adv-x="1024" />

    
    <glyph glyph-name="rilijiantouzuoshuang" unicode="&#59088;" d="M499.121151 267.247039l381.768587-381.752564c18.350697-18.358113 46.462098-20.012799 62.78247-3.693112 16.312185 16.319687 14.65743 44.421722-3.693267 62.779835L584.06527 300.479931l359.606938 359.591845c16.312185 16.319687 16.312185 42.767036 0 59.086723-16.320372 16.319687-42.777018 16.319687-59.09739 0L495.426861 330.026874c-16.320372-16.319687-16.320372-42.775222 0-59.09491 0.591496-0.590448 1.199365-1.154289 1.816445-1.701758C497.850151 268.557894 498.472348 267.894791 499.121151 267.247039zM77.600566 270.931964c0.591496-0.590448 1.199365-1.154289 1.816445-1.701758 0.606846-0.671289 1.229042-1.334391 1.876822-1.983167l381.768587-381.752564c18.350697-18.358113 46.462098-20.012799 62.78247-3.693112 16.312185 16.319687 14.65743 44.421722-3.693267 62.779835L166.237953 300.479931l359.606938 359.591845c16.312185 16.319687 16.312185 42.767036 0 59.086723-16.320372 16.319687-42.777018 16.319687-59.09739 0L77.600566 330.026874C61.280194 313.707187 61.280194 287.251651 77.600566 270.931964z"  horiz-adv-x="1024" />

    
    <glyph glyph-name="bus" unicode="&#59000;" d="M507.721045 720.183851c1.011027 0 2.010797 0 3.060709-0.025583 1.02433 0.025583 2.0241 0.025583 3.075035 0.025583L507.721045 720.183851zM805.719066 606.296011c-8.498558 42.49893-46.339398 59.519582-87.166245 76.500325-40.21491 16.760732-136.589888 36.829813-207.745485 37.361933-71.155597-0.532119-167.595043-20.600177-207.78437-37.361933-40.785915-17.007349-78.653361-34.002418-87.177502-76.500325l-19.925818-235.624439 0-324.70836 52.721759 0 0-50.91767c0-62.11264 87.280856-62.11264 87.280856 0l0 50.91767L685.680133 45.963213l0-50.91767c0-62.11264 87.319741-62.11264 87.319741 0l0 50.91767 52.696176 0L825.69605 370.670549 805.719066 606.296011zM381.236306 660.703155l259.09192 0c25.478278 0 25.478278-38.256302 0-38.256302L381.236306 622.446853C355.705839 622.446853 355.705839 660.703155 381.236306 660.703155M251.378749 378.455863l23.817452 170.915671c3.269463 20.756743 10.287297 34.416857 37.257555 34.416857l396.641669 0c26.892487 0 33.962509-13.661138 37.232996-34.416857l23.856337-170.915671c2.178619-16.411785-2.569522-32.600489-25.179472-32.600489L276.507056 345.855374C253.895059 345.855374 249.147942 362.044078 251.378749 378.455863M347.584881 176.106272c0-9.768481-7.92653-17.746176-17.681708-17.746176l-71.687716 0c-9.795087 0-17.695011 7.977695-17.695011 17.746176l0 30.395264c0 9.807367 7.900947 17.759479 17.695011 17.759479l71.687716 0c9.755178 0 17.681708-7.952112 17.681708-17.759479L347.584881 176.106272zM781.057387 176.106272c0-9.768481-7.952112-17.746176-17.720593-17.746176l-71.66111 0c-9.819646 0-17.733896 7.977695-17.733896 17.746176l0 30.395264c0 9.807367 7.91425 17.759479 17.733896 17.759479l71.66111 0c9.768481 0 17.720593-7.952112 17.720593-17.759479L781.057387 176.106272z"  horiz-adv-x="1024" />

    
    <glyph glyph-name="kefu" unicode="&#59035;" d="M224.080968 12.224912 192.089965 12.224912c-109.441223 0-191.946021 82.504798-191.946021 191.946021s82.504798 191.946021 191.946021 191.946021l31.991004 0L224.080968 12.224912zM160.098961 328.615937C102.963029 315.499625 64.125951 267.161219 64.125951 204.170933s38.837078-111.296701 95.973011-124.476995L160.098961 328.615937zM831.910035 12.224912l-31.991004 0L799.919032 396.116954l31.991004 0c109.441223 0 191.946021-82.504798 191.946021-191.946021S941.351258 12.224912 831.910035 12.224912M863.901039 328.615937l0-248.858016c57.135932 13.116311 95.973011 61.454718 95.973011 124.445004C959.874049 267.225201 921.036971 315.467634 863.901039 328.615937M863.901039-147.730106l0 63.982007c15.93152 0 31.991004 9.949202 31.991004 31.991004l63.982007 0C959.874049-106.461711 918.605655-147.730106 863.901039-147.730106M735.937025-83.748099l127.964014 0 0-63.982007-127.964014 0 0 63.982007ZM656.759291-212.000032c-52.881129 0-95.973011 43.059891-95.973011 95.973011 0 52.881129 43.091882 95.973011 95.973011 95.973011 52.91312 0 95.973011-43.091882 95.973011-95.973011C752.732302-168.940141 709.768384-212.000032 656.759291-212.000032M656.759291-84.036018c-17.627043 0-31.991004-14.33197-31.991004-31.991004s14.363961-31.991004 31.991004-31.991004c17.691025 0 31.991004 14.33197 31.991004 31.991004S674.450316-84.036018 656.759291-84.036018M863.901039 459.907015l-63.982007 0C799.919032 618.774339 670.771351 748.017993 512 748.017993s-287.919032-129.243654-287.919032-288.110978L160.098961 459.907015C160.098961 654.028425 317.974564 812 512 812 705.993445 812 863.901039 654.028425 863.901039 459.907015"  horiz-adv-x="1024" />

    
    <glyph glyph-name="walk" unicode="&#59001;" d="M590.560847 582.638448c43.343915 0 79.463845 34.313933 79.463845 79.463845C668.218695 705.446208 633.904762 739.760141 590.560847 739.760141c-43.343915 0-79.463845-34.313933-79.463845-79.463845C511.097002 618.758377 545.410935 582.638448 590.560847 582.638448L590.560847 582.638448zM590.560847 347.858907 794.638448 347.858907l0 79.463845-140.867725 0-88.493827 135.449735c-14.447972 23.477954-36.119929 36.119929-61.40388 36.119929-5.417989 0-18.059965-1.805996-25.283951-3.611993l-218.525573-74.045855 0-220.33157 79.463845 0 0 157.121693 79.463845 30.70194-158.92769-628.486772 79.463845 0 111.971781 323.273369 99.329806-133.643739 0-187.823633 74.045855 0L624.87478 111.273369l-111.971781 187.823633 37.925926 121.001764L590.560847 347.858907 590.560847 347.858907zM590.560847 347.858907"  horiz-adv-x="1024" />

    
    <glyph glyph-name="0" unicode="&#58880;" d="M746.189 756.357h-591.442c0 0-74.424-0.901-84.603-84.767v-779.428c0 0-0.799-89.846 100.291-89.846h688.599c0 0 79.872 4.444 86.159 85.934v630.374l-70.902-61.727 0.942-592.445-750.469-2.683-2.437 836.321h559.636l64.225 58.266zM820.777 715.090l92.836-71.66 19.436 25.62c0 0 14.664 19.19 0 42.516 0 0-13.558 22.098-36.475 34.918 0 0-31.089 16.916-51.671-3.461l-24.125-27.935zM884.285 605.604l-158.044-207.872c0 0-14.111-25.6-38.81-37.233l-69.878-33.178c0 0-18.842-9.339-22.917 16.302l12.308 76.268c0 0-1.208 13.947 17.633 38.441l167.465 219.484 92.242-72.212zM299.069 215.48h414.228c0 0 13.537 3.523 12.964-19.21l0.573-30.781c0 0-2.97-10.465-18.862-8.11l-404.193-0.389c0 0-14.090-0.819-15.299 12.554l-0.532 36.659c0 0.041 2.314 9.277 11.121 9.277M299.663 56.658h414.208c0 0 13.537 3.461 12.923-19.292l-0.532-32.031c0 0-2.97-10.465-18.821-8.131l-404.214-0.369c0 0-14.090-0.799-15.278 12.534l0.532 37.97c-0-0.020 2.376 9.318 11.182 9.318z"  horiz-adv-x="1024" />

    
    <glyph glyph-name="1" unicode="&#58881;" d="M764.908 110.316l7.311-0.84 100.024 85.832-2.908 21.688-299.991 355.492-104.407-109.22 299.971-352.952zM415.109 511.232l108.216 115.855-109.158 129.29-44.442 2.662-64.901-73.4 6.676-49.807 103.608-124.6zM910.828 0.522l40.673-22.61-13.292 57.672-43.827 124.314-95.273-81.326 111.718-78.049zM909.373-97.208h-755.671c-23.081 0-41.636-2.15-41.636-29.471 0-27.361 18.719-49.48 41.82-49.48h755.63c23.101 0 41.8 22.118 41.8 49.48 0.020 27.32-18.862 29.471-41.943 29.471M154.132 27.044h419.144c23.286 0 42.209 22.364 42.209 49.992 0 27.607-18.924 32.031-42.209 32.031h-419.144c-23.306 0-42.23-4.444-42.23-32.031 0.020-27.628 18.924-49.992 42.23-49.992z"  horiz-adv-x="1024" />

    
    <glyph glyph-name="2" unicode="&#58882;" d="M515.42-190.208l-10.24 3.523c-330.383 113.439-368.579 261.714-368.579 363.377v388.321l29.512-0.881c229.622-6.963 327.393 85.135 328.294 86.016l21.074 20.46 21.012-20.46c0.778-0.758 93.45-86.405 303.78-86.405h0.041c8.008 0 16.179 0.102 24.453 0.389l29.491 0.881v-388.321c0-101.683-38.154-249.938-368.558-363.377l-10.281-3.523zM193.638 513.096v-336.384c0-54.661 0.041-199.045 321.802-312.586 321.843 113.541 321.843 257.925 321.843 312.586v336.384c-178.217 0.614-280.719 56.955-321.843 86.057-41.124-29.082-143.647-85.402-321.802-86.057M260.035 218.839l58.573 42.168 117.289-76.841c0 0 161.915 148.849 318.239 218.255l22.323-22.344c0 0-195.4-143.872-295.875-334.868l-220.549 173.629z"  horiz-adv-x="1024" />

    
    <glyph glyph-name="3" unicode="&#58883;" d="M889.89696 416.40832c-8.94976 17.75616-13.43488 37.04832-24.39168 53.76-20.992 40.59136-49.99168 78.1312-83.94752 110.12096-18.00192 11.6736-32.9728 26.35776-50.97472 38.03136-15.91296 10.67008-33.46432 19.29216-49.95072 28.42624-25.41568 10.1376-49.90976 20.80768-76.41088 27.40224-10.46528 1.00352-19.43552 6.08256-29.94176 6.08256l-43.43808 5.07904c-22.48704 2.51904-45.9776 0.49152-68.97664-1.00352-51.42528-4.07552-96.8704-21.31968-142.31552-41.61536-78.4384-39.58784-148.86912-108.07296-187.31008-189.25568-28.99968-61.35808-44.9536-131.39968-42.98752-198.3488 0-8.64256 2.49856-21.34016 1.51552-29.45024 3.9936-15.74912 3.50208-30.45376 7.51616-45.1584 23.9616-113.11104 95.37536-218.64448 200.27392-278.03648 19.00544-14.21312 40.98048-20.25472 61.952-28.91776 73.9328-28.42624 167.3216-33.4848 245.248-12.16512 111.37024 25.86624 214.28224 107.54048 265.728 214.60992 1.00352 1.04448 2.51904 1.04448 1.51552 3.03104C922.91072 181.48224 931.40992 306.30784 889.89696 416.40832M413.40928 498.08256c13.0048 11.18208 28.99968 20.2752 48.4352 15.72864 14.04928-3.54304 26.03008-13.70112 33.4848-26.89024 7.02464-13.18912 9.50272-35.0208 0-48.20992-8.47872-14.72512-24.96512-26.91072-41.96352-27.38176-19.456 0.98304-40.46848 9.6256-47.9232 29.92128C394.93632 460.0512 400.93696 481.84192 413.40928 498.08256M862.45376 101.344c-32.95232-77.63968-101.39648-152.20736-176.78336-188.7232-23.47008-12.67712-47.49312-24.39168-73.48224-28.42624-11.42784 0-21.42208-3.09248-32.91136-3.09248l-29.98272 3.09248c-6.47168 1.49504-12.47232 6.10304-19.49696 4.58752-33.97632 5.55008-65.41312 24.30976-91.40224 49.152-47.45216 49.78688-66.43712 123.31008-47.45216 187.74016 9.48224 31.98976 28.4672 62.38208 53.4528 85.25824 30.45376 21.79072 61.44 42.10688 90.89024 66.9696 35.49184 25.88672 74.91584 53.76 91.91424 95.35488 14.00832 20.82816 16.4864 46.20288 20.97152 71.04512 7.4752 74.05568-28.44672 150.71232-94.4128 189.27616-12.94336 9.1136-28.4672 13.16864-41.96352 20.80768-15.44192 2.51904-28.95872 9.09312-43.90912 9.09312-1.51552 1.00352 0.47104 1.00352-0.53248 1.536 35.96288 6.08256 82.39104 2.02752 120.40192-6.08256 101.90848-21.8112 198.77888-90.84928 252.74368-183.13216l15.4624-27.89376C909.4144 345.38368 911.91296 204.3584 862.45376 101.344M613.72416 84.59136c6.49216-19.80416 1.98656-43.1104-13.47584-57.856-14.52032-10.6496-32.93184-19.78368-51.44576-13.18912-14.00832 5.09952-28.4672 15.7696-35.47136 28.91776-6.47168 14.19264-4.48512 32.4608 2.00704 46.16192 9.50272 18.75968 29.98272 25.9072 47.47264 32.4608C585.216 121.63968 605.20448 104.88704 613.72416 84.59136"  horiz-adv-x="1024" />

    
    <glyph glyph-name="4" unicode="&#58884;" d="M858.99264-189.75872 191.26272-189.75872c-36.88448 0-66.80576 38.2976-66.80576 85.504L124.45696 608.36736c0 47.18592 29.92128 85.48352 66.80576 85.48352l333.84448 0 200.33536 0 66.78528 0c24.53504 0 44.56448-25.53856 44.56448-56.97536l0-399.0528 0-93.45024 0-163.1232c0-15.7696-9.97376-28.52864-22.30272-28.52864-12.30848 0-22.26176 12.75904-22.26176 28.52864l0 171.06944 0 85.504 0 342.016c0 31.47776-19.98848 57.0368-44.50304 57.0368L480.60416 636.87552l-66.7648 0-200.33536 0c-24.576 0-44.52352-25.55904-44.52352-57.0368l0-655.62624c0-31.45728 19.94752-56.97536 44.52352-56.97536l556.46208 0 44.52352 0 22.30272 0c24.49408 0 44.4416 25.51808 44.4416 56.97536L881.23392 579.83872c0 15.74912 9.95328 28.52864 22.28224 28.52864 12.288 0 22.24128-12.77952 22.24128-28.52864l0-655.62624 0-28.48768C925.75744-151.46112 895.87712-189.75872 858.99264-189.75872M658.65728 225.47328 302.55104 225.47328c-12.30848 0-22.30272 12.71808-22.30272 28.48768 0 15.74912 9.99424 28.4672 22.30272 28.4672l356.10624 0c12.288 0 22.28224-12.73856 22.28224-28.4672C680.93952 238.19136 670.94528 225.47328 658.65728 225.47328M658.65728 46.33472 302.55104 46.33472c-12.30848 0-22.30272 12.71808-22.30272 28.52864 0 15.74912 9.99424 28.50816 22.30272 28.50816l356.10624 0c12.288 0 22.28224-12.75904 22.28224-28.50816C680.93952 59.0528 670.94528 46.33472 658.65728 46.33472M391.59808 400.74112c-12.30848 0-22.24128 12.71808-22.24128 28.50816 0 15.74912 9.9328 28.48768 22.24128 28.48768l178.09408 0c12.288 0 22.24128-12.73856 22.24128-28.48768 0-15.79008-9.95328-28.50816-22.24128-28.50816L391.59808 400.74112z"  horiz-adv-x="1024" />

    
    <glyph glyph-name="5" unicode="&#58885;" d="M772.48512 308.94976l-91.46368 76.55424-14.27456 11.89888c-5.4272 4.56704-2.6624 13.98784 6.28736 20.93056l23.87968 18.69824c59.96544 46.87872 168.61184 131.7888 192.2048 150.26176 28.42624 22.24128 32.89088 50.44224 22.95808 58.73664l-59.74016 49.99168c-5.46816 4.56704-17.7152 1.78176-27.36128-6.2464 0 0-304.68096-254.68928-321.76128-268.5952-20.66432-16.81408-35.86048-47.77984-22.07744-59.04384 20.86912-16.896 101.4784-85.9136 101.4784-85.9136 5.4272-4.64896 2.6624-16.52736-6.12352-26.43968 0 0-184.81152-207.64672-196.11648-219.72992-9.64608-10.40384-6.10304-21.79072 4.48512-14.72512 11.48928 7.59808 255.61088 167.79264 363.9296 237.40416C775.84384 270.16064 782.92992 300.16384 772.48512 308.94976M665.06752 706.46656 200.68352 706.46656c0 0-72.11008-0.9216-81.98144-82.14528l0-717.04576c0 0-0.73728-87.04 97.1776-87.04l629.0432 0c0 0 77.4144 4.28032 83.43552 83.31264L928.3584 476.128l-68.64896-59.86304 0.90112-535.81824-688.9472-2.60096L169.24672 650.0032l433.60256 0L665.06752 706.46656z"  horiz-adv-x="1024" />

    
    <glyph glyph-name="6" unicode="&#58886;" d="M619.6224-170.99904l-173.4656 0c-164.57728 0-294.56384 0-294.56384 85.4016l0 17.05984c0 159.9488 132.17792 290.01728 294.56384 290.01728l173.4656 0c162.38592 0 294.54336-130.08896 294.54336-290.01728l0-17.05984C914.1248-170.99904 777.64608-170.99904 619.6224-170.99904M444.57984 185.76256c-136.64256 0-254.44352-121.48736-254.44352-255.63136l0-17.36704c0-34.77504 149.85216-48.128 254.44352-48.128l176.59904 0c86.58944 0 257.29024 11.75552 257.29024 46.53056l0 17.34656c0 134.18496-120.64768 257.24928-257.29024 257.24928L444.57984 185.76256zM524.20608 238.6624c-128.94208 0-233.79968 103.36256-233.79968 230.37952 0 127.05792 104.8576 230.4 233.79968 230.4 128.9216 0 233.79968-103.34208 233.79968-230.4C758.00576 342.02496 653.08672 238.6624 524.20608 238.6624M326.84032 471.9296c0-100.4544 96.3584-193.98656 198.71744-193.98656 102.37952 0 193.9456 90.66496 193.9456 191.13984 0 100.4544-93.184 190.75072-195.50208 190.75072C421.60128 659.8336 326.84032 572.36352 326.84032 471.9296"  horiz-adv-x="1024" />

    
    <glyph glyph-name="7" unicode="&#58887;" d="M536.986 388.774l377.364 369.889c6.902 6.779 6.881 17.695-0.041 24.433-6.943 6.717-18.145 6.697-25.047-0.041l-377.262-369.848-377.283 369.848c-6.881 6.738-18.084 6.758-25.006 0.041-6.922-6.738-6.943-17.654-0.061-24.433l377.364-369.889-377.364-369.869c-6.902-6.799-6.881-17.695 0.041-24.433 3.42-3.359 7.967-5.038 12.472-5.038 4.567 0 9.073 1.679 12.534 5.079l377.303 369.828 377.262-369.828c3.461-3.4 8.008-5.079 12.554-5.079 4.506 0 9.011 1.679 12.472 5.038 6.922 6.738 6.943 17.633 0.041 24.433l-377.344 369.869z"  horiz-adv-x="1024" />

    
    <glyph glyph-name="8" unicode="&#58888;" d="M518.81984 462.85696c50.11456 0 97.54624-19.84512 133.30432-55.9104 35.79904-36.02432 55.54176-83.70176 55.54176-134.18496 0-34.9184-8.68352-67.35872-25.86624-96.58368-16.44544-27.89376-40.2432-51.6096-68.8128-68.36224l-31.21152-18.35008 0-36.352 0-140.51328-125.8496 0 0 140.51328L455.92576 89.4656l-31.19104 18.35008c-58.42944 34.28352-94.67904 97.4848-94.67904 164.94592 0 50.4832 19.72224 98.16064 55.52128 134.18496C421.33504 443.01184 468.70528 462.85696 518.81984 462.85696M545.13664 736.36736l-68.25984 0L476.8768 609.6576l68.25984 0L545.13664 736.36736zM814.63296 629.70752l-75.53024-76.06272 51.0976-46.57152 75.53024 76.06272L814.63296 629.70752zM214.48704 622.74432l-50.19648-52.18304 75.53024-76.02176 50.15552 52.18304L214.48704 622.74432zM518.81984 526.2016c-138.42432 0-251.71968-114.05312-251.71968-253.44 0-92.95872 50.33984-175.34976 125.87008-219.66848l0-203.85792L644.7104-150.7648l0 203.85792c75.53024 44.31872 125.87008 124.6208 125.87008 219.66848C770.58048 412.14848 657.28512 526.2016 518.81984 526.2016M959.3856 314.99136l-125.89056 0 0-67.52256 125.89056 0L959.3856 314.99136zM204.14464 314.99136 78.25408 314.99136l0-70.77888 125.87008 0L204.12416 314.99136z"  horiz-adv-x="1024" />

    
    <glyph glyph-name="9" unicode="&#58889;" d="M789.0944 659.40352 249.11872 659.40352c-38.97344 0-70.81984-30.47424-70.81984-67.76832l0-677.6832c0-37.23264 31.8464-69.12 70.81984-69.12l540.03712 0c38.97344 0 70.84032 31.88736 70.84032 69.12L859.99616 591.6352C859.93472 628.92928 828.08832 659.40352 789.0944 659.40352M511.93856-126.63936c-23.53152 0-42.496 18.1248-42.496 40.59136 0 22.528 18.96448 40.63232 42.496 40.63232 23.47008 0 42.496-18.1248 42.496-40.63232C554.43456-108.43264 535.40864-126.63936 511.93856-126.63936M809.00096-8.67456 229.29408-8.67456 229.29408 610.82496l579.62496 0 0-619.52L809.00096-8.69504z"  horiz-adv-x="1024" />

    
    <glyph glyph-name="10" unicode="&#58890;" d="M820.75648 594.912 226.67264 594.912c-28.59008 0-51.83488-25.41568-51.83488-56.66816l0-468.91008c0-31.232 23.2448-56.66816 51.83488-56.66816l245.20704 0 0-103.09632-80.1792 0c-10.40384 0-18.8416-9.19552-18.8416-20.60288 0-11.3664 8.43776-20.56192 18.8416-20.56192l264.02816 0c10.4448 0 18.8416 9.19552 18.8416 20.56192 0 11.40736-8.3968 20.60288-18.8416 20.60288l-80.15872 0L575.56992 12.6656l245.20704 0c28.59008 0 51.83488 25.41568 51.83488 56.66816L872.61184 538.24384C872.59136 569.49632 849.34656 594.912 820.75648 594.912M226.67264 553.72672l594.08384 0c7.80288 0 14.15168-6.94272 14.15168-15.48288l0-376.17664L212.50048 162.0672 212.50048 538.24384C212.50048 546.784 218.86976 553.72672 226.67264 553.72672M537.88672-90.43072l-28.32384 0L509.56288 12.6656l28.32384 0L537.88672-90.43072zM820.75648 53.8304 226.67264 53.8304c-7.80288 0-14.15168 6.9632-14.15168 15.48288l0 51.56864 622.40768 0 0-51.56864C834.92864 60.7936 828.55936 53.8304 820.75648 53.8304"  horiz-adv-x="1024" />

    
    <glyph glyph-name="11" unicode="&#58891;" d="M503.9104 432.01408c23.73632 0 39.58784 16.44544 39.58784 40.89856 0 24.73984-15.83104 40.73472-39.58784 40.73472-23.69536 0-47.5136-15.99488-47.5136-40.73472C456.45824 448.45952 480.23552 432.01408 503.9104 432.01408M282.86976 513.64736c-23.69536 0-47.65696-15.99488-47.65696-40.73472 0-24.45312 23.9616-40.89856 47.65696-40.89856 23.57248 0 39.40352 16.44544 39.40352 40.89856C322.2528 497.65248 306.44224 513.64736 282.86976 513.64736M976.46592 170.21824c0 129.37216-115.9168 239.616-258.21184 251.06432 0.22528 1.61792 0.3072 3.2768-0.04096 4.93568-28.52864 137.728-171.56096 241.54112-332.73856 241.54112-182.14912 0-330.30144-131.46112-330.30144-293.08928 0-86.71232 42.74176-164.84352 123.76064-226.46784l-28.22144-87.87968c-1.8432-5.71392-0.16384-12.04224 4.23936-15.9744 2.64192-2.39616 6.02112-3.62496 9.44128-3.62496 2.19136 0 4.4032 0.49152 6.43072 1.536l106.04544 54.94784 13.06624-2.72384c32.64512-6.94272 60.8256-12.96384 95.55968-12.96384 10.21952 0 20.5824 0.45056 30.78144 1.35168 4.11648 0.36864 11.55072-0.34816 10.5472 3.39968 22.71232-84.91008 142.99136-168.3456 266.99776-168.3456 31.78496 0 63.8976 7.90528 92.7744 15.38048l81.7152-46.22336c2.1504-1.2288 4.54656-1.88416 6.90176-1.88416 3.21536 0 6.43072 1.14688 9.05216 3.31776 4.54656 3.82976 6.41024 10.07616 4.7104 15.85152l-19.74272 67.87072C939.2128 29.60256 976.46592 102.04032 976.46592 170.21824M413.5936 115.72096c-9.35936-0.83968-18.67776-4.34176-28.11904-4.34176-31.76448 0-58.6752 5.67296-89.74336 12.30848l-18.08384 3.82976c-3.09248 0.67584-6.38976 0.24576-9.25696-1.29024l-79.42144-41.18528 20.62336 64.2048c2.048 6.30784-0.18432 13.18912-5.38624 16.93696-79.79008 57.61024-113.84832 128.45056-113.84832 209.16224 0 145.18272 128.98304 255.05792 295.26016 255.05792 146.98496 0 271.83104-81.92 298.7008-205.06624C530.2272 423.26912 410.624 307.9872 410.624 170.21824c0-20.00896 2.7648-36.33152 7.76192-55.07072-1.51552 0.38912 0.16384 0.57344-1.51552 0.38912L413.5936 115.72096zM842.79296-6.23744c-4.8128-3.76832-6.8608-10.19904-5.09952-16.15872l13.57824-46.85824-55.86944 31.66208c-2.1504 1.20832-4.52608 1.80224-6.90176 1.80224-1.18784 0-2.37568-0.16384-3.54304-0.45056-29.96224-7.86432-60.7232-12.30848-90.89024-12.30848-140.32896 0-254.64832 96.1536-254.64832 218.8288 0 122.65472 114.09408 222.43328 254.34112 222.43328 137.60512 0 249.01632-101.82656 249.01632-222.39232C942.81728 109.1264 910.4384 46.39616 842.79296-6.23744M606.65856 276.5504c-15.79008 0-31.60064-16.4864-31.60064-32.84992 0-16.42496 15.79008-32.68608 31.60064-32.68608 23.73632 0 39.46496 16.26112 39.46496 32.68608C646.12352 260.10496 630.39488 276.5504 606.65856 276.5504M780.32896 276.5504c-15.58528 0-31.37536-16.4864-31.37536-32.84992 0-16.42496 15.79008-32.68608 31.37536-32.68608 23.6544 0 39.66976 16.26112 39.66976 32.68608C819.97824 260.10496 804.02432 276.5504 780.32896 276.5504"  horiz-adv-x="1024" />

    
    <glyph glyph-name="14" unicode="&#58892;" d="M341.27872 667.98464 305.78688 628.43776 654.6432 251.93344 310.02624-132.92672 344.8832-171.04 722.65728 250.06976Z"  horiz-adv-x="1024" />

    
    <glyph glyph-name="15" unicode="&#58893;" d="M931.983 578.303l-39.096 35.86-379.781-344.064-380.334 348.344-38.523-34.427 416.256-381.87z"  horiz-adv-x="1024" />

    
    <glyph glyph-name="17" unicode="&#58894;" d="M510.50496 8.48768c-22.24128 0-40.3456-18.432-40.3456-41.08288 0-22.67136 18.10432-41.12384 40.3456-41.12384 22.24128 0 40.36608 18.432 40.36608 41.12384C550.87104-9.9648 532.76672 8.48768 510.50496 8.48768M710.16448 655.40992 310.8864 655.40992c-33.5872 0-60.90752-27.83232-60.90752-62.03392L249.97888-89.12c0-34.24256 27.32032-62.03392 60.90752-62.03392l399.27808 0c33.56672 0 60.88704 27.79136 60.88704 62.03392L771.05152 593.376C771.03104 627.5776 743.71072 655.40992 710.16448 655.40992M310.8864 614.0608l399.27808 0c11.20256 0 20.29568-9.27744 20.29568-20.6848l0-511.34464L290.59072 82.03136 290.59072 593.376C290.59072 604.78336 299.68384 614.0608 310.8864 614.0608M710.16448-109.8048 310.8864-109.8048c-11.20256 0-20.29568 9.27744-20.29568 20.6848l0 126.2592 439.86944 0L730.46016-89.12C730.46016-100.52736 721.36704-109.8048 710.16448-109.8048"  horiz-adv-x="1024" />

    
    <glyph glyph-name="18" unicode="&#58895;" d="M937.247 475.126c-23.818 56.955-57.876 107.868-102.277 152.617-44.237 44.605-94.761 78.459-152.064 102.072-57.16 23.695-116.961 35.492-179.651 35.492-62.321 0-121.958-11.796-179.077-35.676-57.344-23.798-107.868-57.836-151.9-101.868-43.889-43.725-77.742-94.433-101.56-152.084-23.962-57.876-36.004-117.514-36.004-179.098 0-54.108 8.192-104.428 24.699-150.467 16.527-46.244 40.673-87.45 72.95-123.474 6.574-7.66 13.21-13.517 19.681-17.51 6.451-4.096 12.554-6.103 18.104-6.103 1.782 0 4.444 0.532 7.885 1.29 3.564 0.881 7.885 2.294 13.107 3.891-40.899 51.589-70.451 100.127-88.33 146.207-18.145 46.019-27.075 94.74-27.075 146.166 0 56.422 10.957 110.674 32.625 163.144 21.668 52.511 52.634 98.898 92.795 139.121 40.305 40.141 86.487 71.168 138.834 92.836 52.265 21.668 106.742 32.584 163.512 32.584 56.975 0 111.411-10.691 163.185-32.195 51.794-21.524 97.792-52.675 138.486-93.164 40.305-40.264 71.291-86.487 93.123-138.793 21.852-52.306 32.768-106.721 32.768-163.369 0-56.074-10.895-110.305-32.768-162.98-21.811-52.675-52.818-98.898-93.123-138.854-40.325-40.325-86.528-71.25-138.998-93.123-52.49-21.832-106.783-32.768-162.673-32.768-68.567 0-123.556 10.916-164.782 32.952-41.37 22.057-61.952 51.036-61.952 86.671 0 7.7 1.413 15.217 4.096 22.589 2.867 7.332 7.373 15.032 13.804 23.45 6.267-5.919 11.837-10.22 17.019-13.066 4.997-2.867 9.482-4.137 13.435-4.137 6.267 0 15.77 5.386 28.836 16.138 12.861 10.916 25.784 24.699 38.666 41.533 10.588 14.316 19.538 30.454 27.034 48.538 7.516 17.92 11.325 29.368 11.325 34.427 0 3.011-4.506 9.81-13.251 20.398-8.95 10.629-13.455 21.115-13.455 32.031 0 14.356 4.116 33.341 12.37 56.771 8.233 23.634 20.029 51.753 35.84 84.378 18.268 36.741 32.932 62.505 44.421 77.414 11.264 14.848 22.938 24.33 34.939 28.426 2.683 1.126 7.332 2.028 13.599 2.724 20.582 2.15 36.004 11.121 46.244 26.685 9.318 15.749 17.51 36.004 24.535 60.723 6.984 24.535 10.568 45.507 10.568 62.71 0 13.967-2.15 23.409-6.615 28.303-4.301 4.792-13.414 7.332-27.566 7.332-22.077 0-40.694-1.597-56.095-4.69-15.421-3.195-27.013-7.68-35.103-13.783-9.871-7.004-25.436-24.023-46.94-51.405-21.484-27.218-43.52-58.388-65.905-93.348-40.858-63.939-74.506-132.157-100.68-204.513-26.317-72.54-39.404-126.833-39.404-163.144 0-7.209 1.638-14.5 4.69-22.426 3.195-7.905 8.745-18.268 16.814-31.15-10.916-13.599-18.985-27.197-24.207-40.489-5.181-13.23-7.885-26.685-7.885-40.325 0-45.117 24.371-81.981 72.95-110.674 48.66-28.672 112.763-43.028 192.471-43.028 61.317 0 120.75 12.042 178.79 36.004 57.876 23.9 108.892 57.733 152.965 101.601 44.052 44.012 78.090 94.925 101.97 152.596 23.921 57.651 35.963 117.494 35.963 179.466-0.082 62.034-11.899 121.446-35.758 178.422M631.091 442.378c9.339-2.314 16.671-3.584 22.241-3.584 14.336 0 28.14 13.251 41.595 39.936 13.21 26.522 19.866 53.555 19.866 81.326 0 15.954-4.116 28.488-12.554 37.437-8.376 8.929-25.764 18.289-51.917 28.119 0-34.038-4.813-65.761-14.131-95.273-9.482-29.553-22.897-55.173-40.468-76.841 14.316-4.833 26.092-8.643 35.369-11.121M451.318 149.678c-7.332-29.757-19.517-56.934-36.925-81.674-17.367-24.535-39.219-46.531-65.864-65.72 12.308-8.090 23.060-14.152 32.563-18.473 9.482-4.076 17.203-6.267 23.101-6.267 19.558 0 40.141 14.541 61.809 43.52 21.852 29.020 32.584 54.252 32.584 75.592 0 8.090-3.195 15.749-9.667 23.265-6.431 7.598-18.985 17.428-37.601 29.757z"  horiz-adv-x="1024" />

    
    <glyph glyph-name="20" unicode="&#58896;" d="M696.413923 424.869238c0 16.918156-13.630856 30.645343-30.44064 30.645343-16.797742 0-30.416557-13.727187-30.416557-30.645343 0-16.918156 13.630856-30.633302 30.416557-30.633302C682.783067 394.235936 696.413923 407.951082 696.413923 424.869238M915.651552 678.882408c-91.117215 98.414299-261.033302 119.703481-405.746754 119.703481-146.230668 0-301.191345-6.177234-392.428975-106.409784-80.677328-88.612606-106.421825-263.152587-106.421825-392.428975 0-137.103293 16.882032-302.238946 106.421825-392.416933 90.370649-91.020884 254.049294-106.421825 392.428975-106.421825 144.52079 0 301.323801 8.224271 392.428975 106.421825 82.567827 89.009972 106.421825 261.442709 106.421825 392.416933C1008.755597 430.552775 998.014675 589.908561 915.651552 678.882408M830.145626 83.531891c0-32.957291-26.55127-59.785513-59.171402-59.785513L256.469614 23.746378c-32.704421 0-59.15936 26.719849-59.15936 59.725306l0 76.824083c0 0.481656 0.024083 0.939229 0.048166 1.420884-0.012041 0.204704 0.036124 0.43349 0.036124 0.638194 0 0.252869-0.08429 0.493697-0.08429 0.758608 0 0.698401 0.132455 1.324553 0.204704 1.974788 0.048166 0.505738 0.060207 0.987394 0.144497 1.493133 0.252869 1.444967 0.614111 2.817686 1.107808 4.033866l0.108373 0.252869c0.060207 0.144497 0.156538 0.240828 0.228786 0.385325 0.60207 1.372719 1.420884 2.673189 2.360113 3.901411 0.276952 0.361242 0.565945 0.734525 0.879022 1.083725 0.264911 0.313076 0.469614 0.662277 0.770649 0.963311l129.396802 130.263782c34.619003 34.847789 90.442897 34.920038 125.134149 0l54.4873-54.8365 26.647601 33.354657 1.408843 1.613547c27.321919 27.50254 71.417498 27.562747 98.787582 0l106.277328-106.98777c7.730574-7.778739 7.730574-20.361994 0-28.140734-7.730574-7.790781-20.253622-7.790781-27.960113 0l-106.265287 106.975729c-11.788523 11.872813-30.500847 11.908937-42.421825 0.361242l-28.345437-35.510066 63.157103-63.590593c7.730574-7.778739 7.730574-20.374036 0-28.152775s-20.24158-7.778739-27.960113 0L429.66096 279.312888c-19.218062 19.338476-49.995861 19.314393-69.18984 0L236.866228 154.865099l0-71.393415c0-11.041957 8.778175-19.916463 19.603387-19.916463l514.50461 0c10.740922 0 19.615428 8.982879 19.615428 19.97667l0 417.956726c0 11.150329-8.754092 19.97667-19.615428 19.97667L256.469614 521.465287c-10.716839 0-19.603387-9.006961-19.603387-20.085042l0-183.715522c0-10.993791-8.850423-19.916463-19.784008-19.916463-10.909501 0-19.784008 8.922672-19.784008 19.916463L197.298213 501.392286c0 33.005456 26.539229 59.905927 59.15936 59.905927l514.50461 0c32.740546 0 59.171402-26.695767 59.171402-59.797554L830.133584 83.531891zM592.833866 411.960865c0 38.496331 30.982502 69.695579 69.213923 69.695579 38.219379 0 69.213923-31.199247 69.213923-69.695579 0-38.472248-30.994544-69.671496-69.213923-69.671496C623.82841 342.28937 592.833866 373.488617 592.833866 411.960865"  horiz-adv-x="1024" />

    
    <glyph glyph-name="21" unicode="&#58897;" d="M517.936406 545.776858M517.924365 37.304986l-208.677328 208.653246 0 59.014864L497.068674 117.175541 497.068674 545.788899l41.711383 0 0-428.613358 187.84572 187.809595 0-59.014864L517.924365 37.304986zM517.912324-168.735278c-253.796425 0-460.270179 206.485795-460.270179 460.270179C57.642145 545.331326 264.115898 751.793039 517.912324 751.793039c253.808467 0 460.294262-206.461712 460.294262-460.258137C978.194544 37.750517 771.696707-168.735278 517.912324-168.735278M517.912324 725.482596c-239.286548 0-433.959737-194.673189-433.959737-433.959737 0-239.274506 194.673189-433.959737 433.959737-433.959737 239.298589 0 433.983819 194.68523 433.983819 433.959737C951.896143 530.809407 757.210913 725.482596 517.912324 725.482596"  horiz-adv-x="1024" />

    
    <glyph glyph-name="22" unicode="&#58898;" d="M716.980621 511.254186 547.738852 745.916839c-6.297648 8.958796-16.00301 13.859643-25.9492 14.244967-0.132455 0.012041-0.252869 0.012041-0.373283 0.012041-0.325118 0.012041-0.638194 0.012041-0.939229 0.012041-0.301035 0-0.60207 0-0.903104 0-0.144497-0.012041-0.288993-0.012041-0.421449-0.024083-9.982314-0.385325-19.687676-5.310254-25.997366-14.26905L323.082596 510.302916c-10.957667-15.545437-7.598119-37.231985 7.429539-48.51477 15.087865-11.282785 36.136218-7.838946 47.093885 7.706491l142.955409 198.092944L662.637817 470.542239c10.89746-15.449106 31.897648-18.892944 46.913264-7.658325C724.566698 474.106491 727.853998 495.756914 716.980621 511.254186M818.260771-155.26096c0.240828 0.180621 0.481656 0.3492 0.722484 0.529821 0.108373 0.108373 0.228786 0.192662 0.325118 0.276952 7.850988 6.177234 12.812041 15.858514 12.643462 26.816181l-0.879022 290.558796c-0.252869 19.013358-15.7381 34.59492-34.534713 34.871872-18.844779 0.252869-33.860395-14.895202-33.571402-33.896519l0.78269-244.283725-230.761242 75.896896c-17.917592 6.104986-36.93095-3.45588-42.457949-21.373471-5.53904-17.893509 4.527563-37.36444 22.433114-43.481468L787.80809-159.740357c10.367639-3.540169 21.084478-1.806209 29.368956 3.72079 0.096331 0.08429 0.204704 0.156538 0.313076 0.240828C817.73095-155.61016 818.007902-155.44158 818.260771-155.26096M1002.409784 409.347883c-0.024083 0.120414-0.08429 0.252869-0.108373 0.361242-0.096331 0.301035-0.192662 0.614111-0.264911 0.903104-0.108373 0.288993-0.216745 0.553904-0.276952 0.842897-0.048166 0.132455-0.108373 0.276952-0.168579 0.409407-3.443838 9.356162-11.150329 17.098777-21.602258 20.32587l-276.614864 88.913641c-18.182502 5.635372-37.785889-4.262653-43.854751-22.047789-6.068862-17.833302 3.696707-36.810536 21.867168-42.409784l232.567451-74.752963L770.468485 185.895767c-11.33095-15.148071-8.115898-36.208467 7.212794-46.973471 15.328692-10.801129 36.918909-7.26096 48.322107 7.887112l170.891439 233.434431C1003.445343 389.034055 1005.119097 399.762935 1002.409784 409.347883M549.496896-25.876199c-5.514958 17.917592-24.552399 27.478457-42.457949 21.373471L276.265663-80.387582l0.78269 244.283725c0.264911 19.001317-14.750706 34.16143-33.583443 33.896519-18.796613-0.276952-34.269802-15.858514-34.522672-34.871872l-0.915146-290.558796c-0.156538-10.945626 4.804516-20.638946 12.655503-26.828222 0.120414-0.096331 0.216745-0.168579 0.325118-0.264911 0.240828-0.180621 0.481656-0.3492 0.722484-0.529821 0.252869-0.180621 0.505738-0.3492 0.758608-0.529821 0.108373-0.08429 0.228786-0.156538 0.337159-0.240828 8.284478-5.526999 18.989276-7.26096 29.356914-3.72079l274.85682 90.358608C544.969332-63.24064 555.035936-43.769708 549.496896-25.876199M380.495955 499.056256c-6.068862 17.785136-25.672248 27.683161-43.854751 22.047789L60.038382 432.190405c-10.488053-3.239135-18.170461-10.969708-21.602258-20.337912-0.060207-0.120414-0.108373-0.252869-0.156538-0.397366-0.08429-0.276952-0.192662-0.565945-0.276952-0.842897-0.08429-0.288993-0.192662-0.60207-0.276952-0.891063-0.036124-0.132455-0.072248-0.252869-0.108373-0.385325-2.697272-9.572907-1.023518-20.313829 5.526999-29.079962l170.891439-233.446472c11.379116-15.148071 32.993415-18.700282 48.310066-7.887112 15.316651 10.777046 18.555786 31.837441 7.212794 46.973471L126.037253 381.893509l232.579492 74.752963C376.787206 462.24572 386.564817 481.210913 380.495955 499.056256"  horiz-adv-x="1024" />

    
    <glyph glyph-name="23" unicode="&#58899;" d="M879.093885 541.189087 745.759548 541.189087l0-55.510818 133.334337 0c30.657385 0 55.510818-24.865475 55.510818-55.52286l0-429.805456c0-30.657385-24.853434-55.510818-55.510818-55.510818L157.32079-55.160865c-30.657385 0-55.510818 24.853434-55.510818 55.510818L101.809972 430.155409c0 30.657385 24.853434 55.52286 55.510818 55.52286l133.334337 0 0 55.510818L157.32079 541.189087c-61.31477 0-111.033678-49.718909-111.033678-111.033678l0-429.805456c0-61.326811 49.718909-111.04572 111.033678-111.04572l721.773095 0c61.326811 0 111.04572 49.718909 111.04572 111.04572L990.139605 430.155409C990.139605 491.470179 940.420696 541.189087 879.093885 541.189087M296.519285 336.304798l200.103857-200.501223c5.177799-5.225964 12.28222-8.164064 19.615428-8.164064l0.024083 0c7.333208 0 14.389464 2.9381 19.603387 8.152023l200.513264 200.489182c10.861336 10.861336 10.861336 28.405644 0 39.242897-10.849294 10.849294-28.417686 10.849294-39.26698 0L542.476764 220.86397 542.476764 692.862465c0 15.352775-12.402634 27.767451-27.755409 27.767451-15.352775 0-27.767451-12.414675-27.767451-27.767451l0-468.783443L335.822389 375.511571c-5.454751 5.442709-12.547131 8.164064-19.651552 8.164064-7.104421 0-14.208843-2.721355-19.639511-8.103857C285.694073 364.722484 285.694073 347.154092 296.519285 336.304798"  horiz-adv-x="1024" />

    
    <glyph glyph-name="24" unicode="&#58900;" d="M964.40715 682.145626c-0.024083 0.95127-0.445532 1.830292-0.553904 2.793603C962.215616 701.423895 948.777422 714.464722 931.847225 714.464722L638.241957 714.464722c-18.013923 0-32.632173-14.606209-32.632173-32.60809 0-18.013923 14.61825-32.620132 32.632173-32.620132l219.514581 0L384.987394 139.536406c-12.246096-13.209407-11.463405-33.836312 1.758043-46.106491 6.273565-5.779868 14.244967-8.681844 22.156162-8.681844 8.766134 0 17.496143 3.492004 23.938288 10.415804l466.375165 502.824459 0-242.357103c0-18.013923 14.594167-32.620132 32.620132-32.620132 18.013923 0 32.620132 14.606209 32.620132 32.620132L964.455315 681.832549l0 0.012041C964.467357 681.952963 964.40715 682.037253 964.40715 682.145626M931.847225 192.891816c-18.025964 0-32.620132-14.606209-32.620132-32.60809l0-2.239699-0.024083 0 0-115.127752c0-25.419379-20.687112-46.106491-46.09445-46.106491L162.342051-3.190216c-25.431421 0-46.118532 20.687112-46.118532 46.106491L116.223518 603.105927c0 25.431421 20.687112 46.118532 46.118532 46.118532l281.323048 0.168579c17.604516 0.493697 31.789276 14.738664 31.789276 32.451552 0 17.712888-14.18476 31.969897-31.789276 32.439511L162.342051 714.464722c-61.49539 0-111.358796-49.851364-111.358796-111.358796l0-560.177611c0-61.49539 49.851364-111.346754 111.358796-111.346754l690.76651 0c61.483349 0 111.334713 49.851364 111.334713 111.346754l0 40.194167 0 75.114205 0 2.047037C964.443274 178.285607 949.837065 192.891816 931.847225 192.891816"  horiz-adv-x="1024" />

    
    <glyph glyph-name="25" unicode="&#58901;" d="M530.242709 613.461524c-189.423142 0-380.977611-125.110066-477.525494-314.159925 96.559925-189.025776 288.102352-314.159925 477.525494-314.159925s355.847225 125.134149 452.395108 314.159925C886.089934 488.351458 719.677893 613.461524 530.242709 613.461524M530.242709 35.402446c-157.83857 0-321.661712 105.109313-402.134337 263.899153 80.472625 158.78984 244.295767 263.899153 402.134337 263.899153 157.802446 0 296.531326-105.109313 377.003951-263.899153C826.774036 140.511759 688.057197 35.402446 530.242709 35.402446M517.671496 487.797554c-104.097836 0-188.495955-84.386077-188.495955-188.495955 0-104.13396 84.398119-188.507996 188.495955-188.507996 104.121919 0 188.507996 84.374036 188.507996 188.507996C706.179492 403.399436 621.805456 487.797554 517.671496 487.797554M517.671496 161.054374c-76.354468 0-138.223142 61.892756-138.223142 138.235183 0 76.330386 61.880715 138.235183 138.223142 138.235183s138.235183-61.904798 138.235183-138.235183C655.918721 222.947131 594.025964 161.054374 517.671496 161.054374"  horiz-adv-x="1024" />

    
    <glyph glyph-name="26" unicode="&#58902;" d="M530.242709-14.858325M517.912324-106.794356c-21.27714 0-41.699341 6.526435-59.038946 18.880903C171.75842 116.958796 71.056256 234.904233 59.773471 379.509313L59.67714 380.797742l0 51.11571 0.096331 1.324553c13.390028 166.713076 124.857197 252.905362 222.765757 262.454186 14.016181 1.408843 28.10461 2.143368 41.759548 2.143368 95.090875 0 148.988147-37.557103 193.625588-84.855691 44.661524 47.31063 98.570837 84.855691 193.577422 84.855691 13.654939 0 27.755409-0.734525 41.892004-2.155409 97.788147-9.536783 209.267357-95.644779 222.669426-262.165193l0.096331-1.336595 0.024083-51.103669-0.096331-1.312512c-11.294826-144.773659-112.009031-262.767262-399.148071-467.639511C559.623706-100.267921 539.201505-106.806397 517.912324-106.794356L517.912324-106.794356zM133.165757 383.723801c9.825776-118.330762 103.086359-222.488805 368.382314-411.791533 4.804516-3.431797 10.476011-5.238006 16.364252-5.238006 5.876199 0 11.523612 1.806209 16.304045 5.238006 265.356162 189.338852 358.628786 293.53302 368.466604 412.044403L902.682973 429.204139c-10.46397 123.339981-88.371778 186.689746-156.562183 193.336595-11.84873 1.192098-23.468674 1.794167-34.619003 1.794167-83.218062 0-119.534901-35.871308-165.424647-90.563311l-28.152775-33.571402-28.152775 33.583443c-45.877705 54.692004-82.182502 90.563311-165.472813 90.563311-11.162371 0-22.758231-0.60207-34.486548-1.794167-68.310818-6.646849-146.206585-70.05682-156.646472-193.589464L133.165757 383.723801z"  horiz-adv-x="1024" />

    
    <glyph glyph-name="27" unicode="&#58903;" d="M557.384008 200.008278l89.009972-89.009972c10.885419-10.861336 10.885419-28.526058 0-39.411477-10.885419-10.873377-28.526058-10.873377-39.399436 0L401.55635 277.025024c-27.081091 27.081091-70.466228 27.020884-97.487112 0L129.890499 102.822201l0-99.883349c0-15.473189 12.378551-27.875823 27.634995-27.875823l724.964064 0c15.13603 0 27.622954 12.559172 27.622954 27.960113L910.112512 588.006021c0 15.593603-12.294262 27.972154-27.622954 27.972154L157.525494 615.978175c-15.111947 0-27.634995-12.607338-27.634995-28.116651L129.890499 330.70555c0-15.376858-12.462841-27.85174-27.863782-27.85174-15.376858 0-27.863782 12.474882-27.863782 27.85174L74.162935 587.861524c0 46.190781 37.400564 83.844214 83.3746 83.844214l724.964064 0c46.142615 0 83.362559-37.376482 83.362559-83.699718l0-584.982879c0-46.130574-37.388523-83.675635-83.362559-83.675635L157.525494-80.652493c-46.082408 0-83.3746 37.388523-83.3746 83.591345l0 107.529633c0 0.662277 0.024083 1.312512 0.072248 1.950706-0.288993 4.214487 0.361242 8.489182 1.98683 12.4508l0.144497 0.361242c4.226529 9.994356 14.136595 17.026529 25.672248 17.026529 15.400941 0 27.863782-12.486924 27.863782-27.875823s-12.462841-27.863782-27.863782-27.863782c-15.376858 0-27.863782 12.474882-27.863782 27.863782 0 3.841204 0.78269 7.513829 2.047037 10.488053 1.348636 3.335466 3.383631 6.514393 6.117027 9.223706l182.330762 182.342803c48.767639 48.755597 127.434055 48.876011 176.310066 0l76.775917-76.775917 37.545061 46.696519 1.98683 2.263782c38.520414 38.48429 100.641957 38.580621 139.222578 0l149.746754-149.746754c10.873377-10.873377 10.873377-28.526058 0-39.411477-10.873377-10.861336-28.526058-10.861336-39.399436 0L657.062653 249.209407c-16.773659 16.773659-43.613923 16.749577-60.399624 0l2.047037 2.239699L557.384008 200.008278zM728.99793 365.180056c53.861148 0 97.535278 43.662088 97.535278 97.535278 0 53.849106-43.67413 97.535278-97.535278 97.535278-53.873189 0-97.535278-43.67413-97.535278-97.535278C631.462653 408.842145 675.124741 365.180056 728.99793 365.180056M728.99793 420.90762c-23.083349 0-41.795673 18.700282-41.795673 41.795673 0 23.083349 18.712324 41.783631 41.795673 41.783631s41.807714-18.700282 41.807714-41.783631C770.805644 439.619944 752.081279 420.90762 728.99793 420.90762"  horiz-adv-x="1024" />

    
    <glyph glyph-name="28" unicode="&#58904;" d="M636.929445 579.69746l-479.849483-479.837441-0.08429 0 0-0.08429-0.036124 0 0.036124-0.012041L80.00301-137.090499l236.89031 76.956538 0.012041-0.024083 0.012041 0.024083 0.060207 0.012041-0.012041 0.036124 479.885607 479.897648L636.929445 579.69746zM267.017874 74.091439l-26.370649 26.346566 396.71571 396.679586 26.334525-26.334525L267.017874 74.091439zM796.489934 739.294073l-105.265851-105.289934 159.897648-159.90969 105.289934 105.277893L796.489934 739.294073z"  horiz-adv-x="1024" />

    
    <glyph glyph-name="29" unicode="&#58905;" d="M821.463782 747.939793l-104.675823 0c-6.646849 0-12.077516-5.442709-12.077516-12.089558l0-11.258702c-8.055691-8.055691-21.951458-19.723801-35.835183-19.723801-21.144685 0-29.814487 33.005456-52.548636 37.039323-22.758231 4.021825-54.764252 6.032738-76.294262 6.032738-21.542051 0-104.687865-1.408843-205.329821-43.276764-100.66604-41.879962-144.352211-130.661148-145.55635-163.871308-0.60207-17.508184 5.430668-42.482032 20.133208-22.348824 14.690499 20.133208 71.056256 85.156726 116.163311 89.997366 44.89031 4.623895 91.996237-1.613547 128.228786-34.619003 34.823706-31.608655 42.879398-62.01317 42.879398-147.964628l-13.281656-4.021825c-8.64572-2.625024-14.088429-11.487488-14.088429-18.122295 0 0-0.397366-13.076952-0.397366-141.727187 0-190.434619-21.758796-403.832173-21.758796-403.832173 0-6.634807 5.442709-12.077516 12.077516-12.077516l169.109313 0c6.634807 0 12.077516 5.442709 12.077516 12.077516 0 0-21.758796 213.397554-21.758796 403.832173 0 128.638194-0.397366 141.727187-0.397366 141.727187 0 6.646849-4.635936 15.701976-14.088429 18.122295l-16.111383 4.021825c0 76.908373-0.794732 108.697648 12.691627 132.67206 14.088429 24.949765 44.902352 46.09445 59.785513 50.525682 11.884854 3.612418 32.210724-2.625024 44.300282-13.088993l0-29.188335c0-6.646849 5.430668-12.089558 12.077516-12.089558l104.675823 0c6.634807 0 12.077516 5.442709 12.077516 12.089558L833.541298 735.850235C833.541298 742.509125 828.098589 747.939793 821.463782 747.939793"  horiz-adv-x="1024" />

    
    <glyph glyph-name="30" unicode="&#58906;" d="M956.134713 275.363311c0-23.131515-18.724365-41.879962-41.831797-41.879962-11.017874 0-20.976105 4.346943-28.429727 11.306867l-0.096331-0.108373L511.04873 620.120414l0 0.012041-1.047601 1.011477 0 0.012041L135.044214 245.500659l-0.024083 0.036124c-7.537912-7.465663-17.90555-12.053434-29.356914-12.053434-23.09539 0-41.819755 18.748448-41.819755 41.879962 0 11.884854 4.924929 22.589652 12.848166 30.211853L479.8254 709.479586c7.622201 7.911195 18.302916 12.860207 30.163688 12.860207l0 0c0.758608 0 1.493133-0.012041 2.203575-0.048166 0.120414-0.012041 0.240828-0.012041 0.3492-0.024083 0.638194-0.048166 1.264346-0.096331 1.878457-0.168579 0.048166 0 0.08429 0 0.132455 0 10.223142-1.131891 19.3746-5.948448 26.009407-13.101035l0.048166 0.036124 164.545626-164.882785 0 38.520414c0 23.131515 18.736406 41.892004 41.843838 41.892004s41.819755-18.748448 41.819755-41.892004l0-122.340546 156.116651-156.381562L944.827846 303.853246C951.78777 296.375541 956.134713 286.41731 956.134713 275.363311M872.483161 205.547319l0-125.712135 0-55.896143 0-111.732079c0-23.155597-18.736406-41.904045-41.819755-41.904045l-83.663594 0L746.999812 205.547319 579.696707 205.547319l0-335.256444-390.381938 0c-23.107432 0-41.807714 18.760489-41.807714 41.904045l0 111.732079 0 55.896143 0 125.712135 362.494073 363.15635L872.483161 205.547319zM440.269426 205.547319 272.966322 205.547319l0-167.640263 167.303104 0L440.269426 205.547319z"  horiz-adv-x="1024" />

    
    <glyph glyph-name="31" unicode="&#58907;" d="M43.385 216.395l42.085-38.496 407.24 370.225 409.154-373.379 41.314 37.039-447.807 409.335z"  horiz-adv-x="1024" />

    
    <glyph glyph-name="32" unicode="&#58908;" d="M512.204704 777.537535c-264.573471 0-479.042709-214.565569-479.042709-479.247413 0-264.669802 214.469238-479.247413 479.042709-479.247413s479.042709 214.565569 479.042709 479.247413C991.247413 562.971966 776.778175 777.537535 512.204704 777.537535M512.204704-126.024459c-234.325494 0-424.290499 189.977046-424.290499 424.30254 0 234.325494 189.965005 424.290499 424.290499 424.290499 234.337535 0 424.290499-189.965005 424.290499-424.290499C936.495202 63.952587 746.542239-126.024459 512.204704-126.024459M450.865851 267.596613 297.518721 267.596613c-16.942239 0-30.669426-13.715146-30.669426-30.657385l0-153.347131c0-16.942239 13.739229-30.681468 30.669426-30.681468l153.347131 0c16.942239 0 30.669426 13.739229 30.669426 30.681468L481.535278 236.939229C481.547319 253.881468 467.80809 267.596613 450.865851 267.596613M450.865851 83.592098 297.518721 83.592098 297.518721 236.939229l153.347131 0L450.865851 83.592098zM726.902728 543.645532 573.555597 543.645532c-16.942239 0-30.681468-13.727187-30.681468-30.669426l0-153.347131c0-16.942239 13.739229-30.669426 30.681468-30.669426l153.347131 0c16.930198 0 30.669426 13.739229 30.669426 30.669426L757.572154 512.976105C757.572154 529.918344 743.832926 543.645532 726.902728 543.645532M726.902728 359.616933 573.555597 359.616933 573.555597 512.976105l153.347131 0L726.902728 359.616933zM726.902728 267.596613 573.555597 267.596613c-16.942239 0-30.681468-13.715146-30.681468-30.657385l0-153.347131c0-16.942239 13.739229-30.681468 30.681468-30.681468l153.347131 0c16.930198 0 30.669426 13.739229 30.669426 30.681468L757.572154 236.939229C757.572154 253.881468 743.832926 267.596613 726.902728 267.596613M726.902728 83.592098 573.555597 83.592098 573.555597 236.939229l153.347131 0L726.902728 83.592098zM450.865851 543.645532 297.518721 543.645532c-16.942239 0-30.669426-13.727187-30.669426-30.669426l0-153.347131c0-16.942239 13.739229-30.669426 30.669426-30.669426l153.347131 0c16.942239 0 30.669426 13.739229 30.669426 30.669426L481.535278 512.976105C481.547319 529.918344 467.80809 543.645532 450.865851 543.645532M450.865851 359.616933 297.518721 359.616933 297.518721 512.976105l153.347131 0L450.865851 359.616933z"  horiz-adv-x="1024" />

    
    <glyph glyph-name="33" unicode="&#58909;" d="M597.337347-169.373471c-7.26096 0-14.401505 2.263782-20.313829 6.755221l-185.220696 141.486359c-7.730574 5.900282-12.209972 14.955409-12.209972 24.480151L379.59285 303.407714c0 1.011477-0.481656 1.938664-1.180056 2.612982L84.566698 588.379304c-1.180056 1.131891-2.299906 2.323989-3.251176 3.564252-16.593039 16.737535-25.383255 37.822013-25.383255 60.122672 0 47.346754 40.146002 85.915334 89.383255 85.915334l728.576482 0c49.249294 0 89.395296-38.568579 89.395296-85.915334 0-22.059831-8.754092-43.047977-24.56444-59.038946-0.590028-0.806773-1.81825-2.215616-2.661148-2.901976l-305.008467-293.063405c-0.698401-0.674318-1.192098-1.637629-1.192098-2.673189l0-432.587018c0-12.005268-7.128504-22.890687-18.459454-28.116651C606.910254-168.349953 602.069614-169.373471 597.337347-169.373471M444.664534 18.448166l120.149012-91.767451L564.813547 294.46096c0 17.736971 7.140546 34.293885 20.073001 46.828975l304.057197 292.051929c0.95127 1.083725 1.830292 1.98683 2.76952 2.9381 4.021825 4.106115 6.442145 9.825776 6.442145 15.786265 0 12.860207-10.98175 23.34826-24.335654 23.34826L145.315522 675.414487c-13.40207 0-24.323612-10.54826-24.323612-23.34826 0-6.020696 2.42032-11.800564 6.791345-16.111383 1.589464-1.589464 3.010348-3.2873 4.371025-4.876764l292.316839-280.829351c12.812041-12.306303 20.193415-29.380997 20.193415-46.841016L444.664534 18.448166z"  horiz-adv-x="1024" />

    
    <glyph glyph-name="34" unicode="&#58910;" d="M877.347883 755.790781 144.135466 755.790781c-49.550329 0-89.9492-38.821449-89.9492-86.469238 0-22.433114 8.850423-43.662088 25.539793-60.507996 0.95127-1.252305 2.083161-2.444403 3.263217-3.576294l295.724553-284.152775c0.722484-0.686359 1.192098-1.613547 1.192098-2.637065l0-301.949953c0-9.584948 4.515522-18.712324 12.294262-24.64873l186.388711-142.377422c5.948448-4.515522 13.125118-6.791345 20.434243-6.791345 4.75635 0 9.621072 1.023518 14.160677 3.082596 11.391157 5.250047 18.579868 16.207714 18.579868 28.297272L631.763688 309.380245c0 1.03556 0.469614 2.010913 1.192098 2.697272l306.947131 294.91778c0.842897 0.686359 2.095202 2.107244 2.68523 2.914017 15.930762 16.0873 24.708937 37.219944 24.708937 59.41223C967.297084 716.969332 926.922295 755.790781 877.347883 755.790781"  horiz-adv-x="1024" />

    
    <glyph glyph-name="35" unicode="&#58911;" d="M970.560301 403.339229c-0.036124 0.120414-0.072248 0.240828-0.096331 0.337159-0.108373 0.301035-0.192662 0.590028-0.276952 0.891063-0.096331 0.264911-0.180621 0.529821-0.264911 0.794732-0.036124 0.132455-0.096331 0.252869-0.144497 0.385325-3.323424 9.043086-10.752963 16.484666-20.819567 19.579304l-258.444403 83.085607L532.337912 727.746378c-6.092944 8.621637-15.437065 13.353904-25.022013 13.715146-0.120414 0.012041-0.240828 0.012041-0.361242 0.012041-0.313076 0-0.614111 0-0.927187 0-0.276952 0-0.565945 0-0.854939 0-0.144497 0-0.276952 0-0.409407-0.012041-9.621072-0.373283-18.977234-5.10555-25.070179-13.75127L321.625588 508.737535 62.241957 425.338852c-10.090687-3.106679-17.496143-10.536218-20.819567-19.579304-0.048166-0.132455-0.096331-0.252869-0.132455-0.373283-0.108373-0.276952-0.204704-0.553904-0.276952-0.818815-0.096331-0.288993-0.180621-0.577987-0.264911-0.854939-0.036124-0.120414-0.072248-0.252869-0.108373-0.373283-2.600941-9.235748-0.999436-19.567262 5.322295-28.008278l159.801317-218.322484-0.842897-271.196237c-0.156538-10.584384 4.635936-19.916463 12.209972-25.876952 0.108373-0.072248 0.204704-0.156538 0.301035-0.240828 0.240828-0.180621 0.469614-0.337159 0.710442-0.529821 0.240828-0.168579 0.493697-0.3492 0.722484-0.505738 0.108373-0.08429 0.216745-0.156538 0.325118-0.228786 7.971402-5.334337 18.314958-6.984008 28.297272-3.600376l258.119285 84.879774 258.095202-84.879774c9.994356-3.383631 20.32587-1.746002 28.321355 3.612418 0.108373 0.072248 0.204704 0.132455 0.313076 0.216745 0.240828 0.156538 0.469614 0.337159 0.722484 0.505738 0.252869 0.192662 0.457573 0.3492 0.710442 0.529821 0.108373 0.08429 0.216745 0.168579 0.313076 0.252869 7.574036 5.948448 12.342427 15.30461 12.19793 25.864911l-0.842897 271.196237 159.801317 218.310442C971.559737 383.771966 973.161242 394.103481 970.560301 403.339229"  horiz-adv-x="1024" />

    
    <glyph glyph-name="iconfont14" unicode="&#58912;" d="M682.721-122.651l35.493 39.547-348.856 376.504 344.617 384.86-34.858 38.113-377.774-421.11z"  horiz-adv-x="1024" />

    
    <glyph glyph-name="iconfontmulu" unicode="&#58913;" d="M40.421 591.16l943.158 0c22.339 0 40.421 18.082 40.421 40.421 0 22.312-18.082 40.421-40.421 40.421l-943.158 0c-22.339 0-40.421-18.109-40.421-40.421 0-22.339 18.082-40.421 40.421-40.421zM983.579 321.686l-943.158 0c-22.339 0-40.421-18.109-40.421-40.421s18.082-40.421 40.421-40.421l943.158 0c22.339 0 40.421 18.109 40.421 40.421s-18.082 40.421-40.421 40.421zM983.579-28.63l-943.158 0c-22.339 0-40.421-18.109-40.421-40.421s18.082-40.421 40.421-40.421l943.158 0c22.339 0 40.421 18.109 40.421 40.421s-18.082 40.421-40.421 40.421z"  horiz-adv-x="1024" />

    
    <glyph glyph-name="iconfonticondatadown" unicode="&#58914;" d="M693.772828 241.908679 505.552022-10.258248c-6.96829-6.967264-16.256949-10.193818-25.379355-9.6889-9.119327-0.504919-18.407986 2.721636-25.37525 9.6889L266.577639 241.908679c-12.99345 12.99345-12.99345 34.064574 0 47.058024 12.994476 12.99345 34.181567 12.99345 47.176043 0L447.448386 110.016083 447.448386 588.020269c0 17.655739 14.158252 31.973061 31.813991 31.973061s31.813991-14.317322 31.813991-31.973061l0-480.67656L646.678886 288.967729c12.994476 12.99345 34.08202 12.99345 47.076496 0S706.767304 254.903155 693.772828 241.908679z"  horiz-adv-x="1024" />

    
    <glyph glyph-name="iconfonticonmenu" unicode="&#58915;" d="M200.000192 604.816003l623.999615 0c13.254119 0 23.998012-10.742866 23.998012-23.996985 0-13.254119-10.743893-24.000064-23.998012-24.000064L200.000192 556.818954c-13.254119 0-23.998012 10.745945-23.998012 24.000064C176.001155 594.074163 186.746073 604.816003 200.000192 604.816003zM200.000192 316.817286l623.999615 0c13.254119 0 23.998012-10.742866 23.998012-23.996985s-10.743893-24.000064-23.998012-24.000064L200.000192 268.820237c-13.254119 0-23.998012 10.745945-23.998012 24.000064S186.746073 316.817286 200.000192 316.817286zM200.001219 28.819595l623.996536 0c13.256172 0 24.000064-10.742866 24.000064-24.000064l0-0.002053c0-13.256172-10.743893-24.00109-24.000064-24.00109L200.001219-19.183612c-13.256172 0-24.000064 10.745945-24.000064 24.00109l0 0.002053C176.001155 18.076729 186.746073 28.819595 200.001219 28.819595z"  horiz-adv-x="1024" />

    
    <glyph glyph-name="37" unicode="&#58916;" d="M472.985889 310.331515l20.976105 0L493.961994 331.30762 493.961994 510.483537c0 110.552023-89.587959 200.525306-200.525306 200.525306-110.552023 0-200.537347-89.587959-200.537347-200.525306 0-110.552023 89.587959-200.525306 200.537347-200.525306L472.985889 309.958231 472.985889 310.331515zM473.371214 268.006021 294.183255 268.006021C182.884666 268.403387 93.284666 178.442145 93.284666 67.841957c0-110.503857 89.587959-200.465099 200.525306-200.465099 110.552023 0 200.525306 89.563876 200.525306 200.465099L494.335278 247.06604l0 20.939981L473.371214 268.006021zM452.021825 67.841957c0-87.276011-70.899718-158.163688-158.211853-158.163688-87.300094 0-158.211853 70.887676-158.211853 158.163688 0 87.34826 70.911759 158.247977 158.211853 158.247977l158.211853 0 0 20.976105 20.964064-20.976105-20.964064 0L452.021825 67.841957zM736.800753 711.394167c-110.564064 0-200.525306-89.587959-200.525306-200.525306l0-179.175917 0-20.976105 20.964064 0 179.163876 0c110.949389-0.373283 200.922672 89.587959 200.922672 200.152023C937.326058 621.420884 847.714017 711.394167 736.800753 711.394167M736.403387 352.657008 578.227658 352.657008l0-20.964064-20.976105 20.964064 20.976105 0L578.227658 510.85682c0 87.300094 70.875635 158.211853 158.18777 158.211853s158.223895-70.911759 158.223895-158.211853C894.627281 423.556726 823.715522 352.657008 736.403387 352.657008M937.326058 67.841957c0 110.600188-89.6 200.56143-200.513264 200.56143L557.624835 268.403387l-20.964064 0 0-20.964064 0-179.187959c0-110.576105 89.587959-200.501223 200.525306-200.501223 31.259454 0 61.387018 7.224835 88.444026 20.566698 10.283349 5.334337 14.847037 17.929633 9.536783 28.212982-5.334337 10.283349-17.90555 14.871119-28.225024 9.536783-21.337347-10.692756-45.347883-16.376294-69.755786-16.376294-87.300094 0-158.211853 70.887676-158.211853 158.163688L578.974224 247.06604l-20.976105-20.976105 179.187959 0c87.288053 0 158.199812-70.899718 158.199812-158.247977 0-15.22032-2.275823-30.464722-6.466228-44.938476-3.431797-11.053998 3.058514-22.890687 14.10047-26.310442 11.053998-3.443838 22.866604 3.034431 26.310442 14.088429C934.279586 29.369708 937.326058 48.443274 937.326058 67.841957"  horiz-adv-x="1024" />

    
    <glyph glyph-name="38" unicode="&#58917;" d="M869.424647-4.105362c0-0.553904 0.192662-0.95127 0.192662-1.565381 0-38.508373 20.32587-102.135089 33.330574-123.881844L902.863594-129.552587c0.999436-2.323989 1.625588-4.949012 1.625588-7.682408 0-10.789087-8.91063-19.45889-19.97667-19.45889-1.649671 0-4.298777 0.325118-5.238006 0.325118-0.301035 0-0.397366 0-0.373283-0.048166-68.900847 10.909501-153.527752 89.587959-168.675823 107.457385-15.461148-2.215616-25.925118-2.552775-38.881656-2.552775-5.502916 0-11.355033 0.060207-18.290875 0.060207-127.241392 0-228.678081 46.588147-290.727375 120.377799 2.263782 1.962747 103.893133 1.98683 89.311007 1.095767 53.680527-40.892568 116.560677-60.604327 201.416369-60.604327 0 0 35.148824 0.036124 48.129445 1.866416l32.86096 4.936971c0 0 20.92794-36.365005 81.90555-79.882596-4.780433 19.723801-8.031609 97.715898-8.031609 97.715898l31.078833 15.027658c72.970837 36.389087 104.362747 83.988711 104.362747 149.626341 0 53.632361-15.22032 90.527187-68.563688 126.434619 6.984008 20.699153 13.40207 44.240075 15.412982 66.167451 82.555786-47.190216 115.63349-110.082408 115.63349-192.614111C1005.84158 110.095202 962.625024 42.326246 869.424647-4.105362M420.629915 132.985889c-8.04365 0-14.834995-0.08429-21.168768-0.08429-14.991533 0-27.06905 0.421449-44.986642 2.986265-17.447977-20.723236-135.140546-108.119661-214.878645-120.82333 0.036124 0.120414-0.08429 0.120414-0.373283 0.120414-1.107808 0-4.202446-0.373283-6.068862-0.373283-12.812041 0-23.131515 9.994356-23.131515 22.493321 0 3.166886 0.722484 6.14111 1.890499 8.862465L111.840452 46.167451c15.015616 25.202634 53.10254 86.324741 53.10254 130.9381 0 0.698401 0.192662 1.155974 0.192662 1.770085C57.268862 232.604327 5.62333 341.988335 5.62333 444.568956 5.62333 609.271119 188.339417 740.955786 413.790405 740.955786c225.402822 0 404.265663-131.684666 404.265663-296.38683C820.729257 258.433114 646.032738 132.985889 420.629915 132.985889M413.790405 680.074506c-190.603198 0-345.68429-104.591533-345.68429-235.517592 0-78.606209 38.905738-168.38683 125.447225-211.507056l34.053057-16.966322-2.950141-37.231985c0 0 0.915146-18.59191-20.193415-77.245532 34.727375 21.265099 75.005833 54.065851 84.277705 64.481656l40.013547 32.367262 34.859831-2.348071c29.874694-4.298777 58.954657-3.215052 58.954657-3.215052 190.603198 0 332.402634 106.518156 332.992662 251.653057C755.585325 575.495014 604.405644 680.074506 413.790405 680.074506"  horiz-adv-x="1024" />

    
    <glyph glyph-name="39" unicode="&#58918;" d="M509.74826 797.345626C231.881091 797.345626 6.622766 572.0873 6.622766 294.220132c0-277.867168 225.258325-503.125494 503.125494-503.125494S1012.873754 16.352963 1012.873754 294.220132C1012.873754 572.0873 787.615428 797.345626 509.74826 797.345626M509.74826-154.610724C261.864158-154.610724 60.917404 46.323989 60.917404 294.220132c0 247.896143 200.946754 448.842897 448.830856 448.842897 247.884102 0 448.830856-200.946754 448.830856-448.842897C958.579116 46.323989 757.632361-154.610724 509.74826-154.610724M560.358231 294.220132l126.506867 126.518909c13.980056 13.968015 13.980056 36.629915 0 50.609972-13.955974 13.980056-36.617874 13.980056-50.585889 0L509.74826 344.818062 383.229351 471.336971c-13.968015 13.980056-36.629915 13.980056-50.609972 0-13.968015-13.980056-13.968015-36.629915 0-50.609972L459.150329 294.220132 332.619379 167.689182c-13.968015-13.968015-13.968015-36.617874 0-50.585889 13.992098-13.980056 36.641957-13.980056 50.609972 0l126.518909 126.494826 126.53095-126.494826c13.968015-13.980056 36.629915-13.980056 50.585889 0 13.980056 13.968015 13.980056 36.617874 0 50.585889L560.358231 294.220132z"  horiz-adv-x="1024" />

    
    <glyph glyph-name="40" unicode="&#58919;" d="M690.59793 452.841392c11.427281 0 22.698024-0.86698 34.004892-2.119285C694.1381 593.183819 542.524929 699.003575 369.405833 699.003575c-193.493133 0-352.006021-132.419191-352.006021-300.661524 0-97.065663 52.705174-176.77968 140.848166-238.708561l-35.184948-106.325494 123.075071 61.952963c44.011289-8.705927 79.316651-17.700847 123.267733-17.700847 11.06604 0 21.999624 0.505738 32.836877 1.312512-6.851552 23.661336-10.885419 48.394356-10.885419 74.174976C391.405456 327.50254 523.439323 452.841392 690.59793 452.841392M501.379492 548.666792c26.599436 0 44.059454-17.532267 44.059454-44.131703 0-26.479022-17.460019-44.203951-44.059454-44.203951-26.310442 0-52.777422 17.724929-52.777422 44.203951C448.590028 531.194732 475.008843 548.666792 501.379492 548.666792M255.024647 460.34318c-26.418815 0-53.030292 17.724929-53.030292 44.203951 0 26.599436 26.611477 44.131703 53.030292 44.131703 26.406773 0 43.951082-17.47206 43.951082-44.131703C298.98777 478.068109 281.443462 460.34318 255.024647 460.34318M1011.958608 177.286171c0 141.353904-140.860207 256.529821-299.060019 256.529821-167.519849 0-299.361054-115.248166-299.361054-256.529821 0-141.715146 131.901411-256.505738 299.361054-256.505738 35.052493 0 70.454186 8.778175 105.627093 17.676764l96.523801-53.198871-26.491063 88.395861C959.241392 26.973471 1011.958608 97.560113 1011.958608 177.286171M615.808843 221.562371c-17.47206 0-35.184948 17.484102-35.184948 35.341486 0 17.604516 17.712888 35.317404 35.184948 35.317404 26.731891 0 44.071496-17.712888 44.071496-35.317404C659.880339 239.046472 642.528692 221.562371 615.808843 221.562371M809.446472 221.562371c-17.351646 0-34.992286 17.484102-34.992286 35.341486 0 17.604516 17.580433 35.317404 34.992286 35.317404 26.479022 0 44.083537-17.712888 44.083537-35.317404C853.530009 239.046472 835.925494 221.562371 809.446472 221.562371"  horiz-adv-x="1024" />

    
    <glyph glyph-name="41" unicode="&#58920;" d="M326.695014 288.175353c0 23.733584 4.732267 47.431044 13.811477 69.35842 9.091251 21.903293 22.541486 42.0365 39.35127 58.798119 16.773659 16.761618 36.906867 30.199812 58.870367 39.279022 21.927375 9.067168 45.66096 13.787394 69.442709 13.787394 23.745626 0 47.491251-4.708184 69.442709-13.787394 21.951458-9.07921 42.096707-22.517404 58.89445-39.279022 16.785701-16.773659 30.247977-36.894826 39.327187-58.798119 9.091251-21.927375 13.83556-45.624835 13.83556-69.35842 0-23.709501-4.75635-47.419003-13.83556-69.334337-9.07921-21.927375-22.541486-42.0365-39.327187-58.81016-16.797742-16.773659-36.93095-30.211853-58.89445-39.303104-21.939417-9.07921-45.697084-13.775353-69.442709-13.775353-23.769708 0-47.515334 4.696143-69.442709 13.775353-21.951458 9.091251-42.096707 22.529445-58.870367 39.303104-16.809784 16.773659-30.260019 36.882785-39.35127 58.81016C331.427281 240.768391 326.695014 264.465851 326.695014 288.175353M909.040828 324.696896c-16.267921 194.745437-173.347883 348.923424-368.370273 362.445908L540.670555 789.928128l-69.069426 0 0-104.146002C282.009407 668.225776 131.684666 515.384384 115.440828 324.696896L12.523048 324.696896l0-68.985136 102.91778 0c16.243838-190.687488 166.568579-342.168203 356.172342-361.109313l0-104.121919 69.069426 0 0 102.797366c195.010348 13.510442 352.102352 167.712512 368.370273 362.445908l102.91778 0 0 68.985136L909.040828 324.708937zM512.240828-35.039699c-180.115146 0-325.033302 146.050047-325.033302 324.563688 0 178.525682 146.254751 324.58777 325.033302 324.58777 180.103104 0 325.033302-146.062088 325.033302-324.58777C837.27413 111.010348 692.343932-35.039699 512.240828-35.039699"  horiz-adv-x="1024" />

    
    <glyph glyph-name="42" unicode="&#58921;" d="M513.30047 794.082408c-272.857949 0-494.09445-221.2365-494.09445-494.082408 0-272.845908 221.2365-494.09445 494.09445-494.09445 272.857949 0 494.082408 221.248542 494.082408 494.09445C1007.382879 572.845908 786.15842 794.082408 513.30047 794.082408M513.30047-161.161242c-254.278081 0-461.1492 206.883161-461.1492 461.161242 0 254.278081 206.871119 461.137159 461.1492 461.137159 254.26604 0 461.137159-206.871119 461.137159-461.137159C974.449671 45.709878 767.56651-161.161242 513.30047-161.161242M702.69953 511.940546 513.264346 322.505362 323.901411 511.940546l-22.565569-22.577611 189.399059-189.374976L301.371966 110.600941l22.541486-22.517404 189.362935 189.362935 189.435183-189.362935 22.529445 22.517404L535.86604 299.975917l189.374976 189.423142L702.69953 511.940546z"  horiz-adv-x="1024" />

    
    <glyph glyph-name="43" unicode="&#58922;" d="M209.447977 291.691439c-11.06604 10.765005-11.318909 28.441769-0.553904 39.507808 10.765005 11.053998 28.465851 11.318909 39.519849 0.553904l186.509125-181.475823 352.114393 346.888429c10.98175 10.825212 28.682596 10.668674 39.507808-0.325118 10.81317-11.017874 10.680715-28.706679-0.325118-39.519849l-371.573283-366.058325c-10.789087-10.632549-28.152775-10.716839-39.074318-0.108373L209.447977 291.691439zM517.779868 790.626529c137.043086 0 261.153716-55.571025 350.994544-145.423895C958.603198 555.373848 1014.186265 431.275259 1014.186265 294.220132c0-137.043086-55.571025-261.165757-145.411853-350.994544S654.822954-202.186265 517.779868-202.186265c-137.055127 0-261.153716 55.583067-350.994544 145.411853C76.944497 33.066416 21.385513 157.177046 21.385513 294.220132c0 137.055127 55.558984 261.153716 145.38777 350.982502C256.626152 735.043462 380.724741 790.626529 517.779868 790.626529M833.673754 610.114017C752.827846 690.959925 641.131891 740.99191 517.779868 740.99191c-123.352023 0-235.047977-50.031985-315.893885-130.877893C121.028034 529.280151 71.00809 417.572154 71.00809 294.220132c0-123.352023 50.019944-235.047977 130.877893-315.905927C282.731891-102.519661 394.415804-152.551646 517.779868-152.551646c123.364064 0 235.047977 50.019944 315.905927 130.865851C914.519661 59.172154 964.539605 170.880151 964.539605 294.220132 964.539605 417.572154 914.519661 529.280151 833.673754 610.114017"  horiz-adv-x="1024" />

    
    <glyph glyph-name="50" unicode="&#58923;" d="M614.412034 95.21205l0 76.775916c82.724364 47.370837 127.999998 128.79473 127.999998 204.799998l0 25.612041c14.196801 14.18476 25.6 32.295014 25.6 76.799999s-11.403198 62.615239-25.6 76.799999l0 25.587958C742.412033 664.890312 665.515702 812 512.012035 812c-153.52775 0-230.412039-148.939979-230.412039-230.412039l0-25.587958c-13.028786-13.028786-25.587958-32.295014-25.587958-76.799999s19.157855-70.333772 25.587958-76.799999l0-25.612041c0-78.172718 45.299717-157.429161 127.999998-204.799998l0-76.775916C154.358606 95.21205 0-88.346932 0-211.999988l1023.999988 0C1023.999988-88.346932 895.470168 95.21205 614.412034 95.21205M76.306302-137.523978c16.015052 30.007149 39.748635 59.147318 68.635935 84.325869 15.665851 13.570649 32.824835 26.057573 51.043461 37.003198 19.278269 11.571778 39.905174 21.602258 61.350893 29.75428 47.214299 17.929633 98.462464 27.020884 152.275445 27.020884 14.497836 0 28.393603 5.767827 38.616745 16.015052 10.247225 10.223142 16.015052 24.118908 16.015052 38.616745l0 76.775916c0 19.591345-10.500094 37.677516-27.50254 47.406961-16.328128 9.356162-31.175164 20.434242-44.119661 32.909125-12.294261 11.836688-22.854562 24.961806-31.391909 38.965945-16.352211 26.804139-24.99793 56.377798-24.99793 85.517967l0 25.612041c0 14.124553-5.454751 27.671119-15.244402 37.858137-1.348636 1.746002-10.343556 14.546002-10.343556 38.941862 0 16.388335 2.179492 25.383255 4.057949 30.043273 1.264346 3.215052 2.649106 5.27413 5.526999 8.139981 10.247225 10.247225 16.015052 24.13095 16.015052 38.616745l0 25.587958c0 14.148636 3.961618 32.764628 10.89746 51.055503 8.152022 21.638382 20.121166 42.494073 34.558795 60.315333 16.051176 19.820131 34.582878 35.353527 55.10141 46.202822 10.969708 5.815992 22.613734 10.283349 34.606961 13.293697 12.896331 3.263217 26.575352 4.900847 40.639698 4.900847 14.10047 0 27.815616-1.625588 40.772154-4.864722 11.981185-2.974224 23.649294-7.417498 34.631044-13.173283 20.530574-10.765005 39.038193-26.165945 55.005079-45.781373 14.413546-17.712888 26.346566-38.484289 34.462464-60.074505 7.044214-18.664158 10.909501-37.099529 10.909501-51.886359l0-25.587958c0-14.485795 5.755785-28.405644 16.015052-38.652869 3.648542-3.648542 4.768391-5.563123 5.828034-8.212229 1.709878-4.371025 3.756914-13.137159 3.756914-29.934901s-2.047037-25.563876-3.756914-29.934901c-1.059643-2.661148-2.191533-4.563688-5.828034-8.212229-10.271307-10.271307-16.015052-24.167074-16.015052-38.652869l0-25.612041c0-13.811477-2.095202-27.996237-6.201317-42.168955-4.274694-14.654374-10.632549-29.019755-18.892944-42.674694-17.797178-29.393038-43.890874-54.487299-75.439322-72.549388-16.990404-9.729445-27.466415-27.815616-27.466415-47.406961l0-76.775916c0-14.497836 5.755785-28.393603 15.978927-38.616745 10.271307-10.247225 24.13095-16.015052 38.628786-16.015052 59.893885 0 114.935088-9.127375 163.582312-27.177422 42.156914-15.677893 79.123988-37.785889 109.805455-65.758043 13.739228-12.559172 26.141862-26.238193 36.882784-40.675823 10.042521-13.498401 18.628034-27.731326 25.51571-42.241204 3.492004-7.345249 6.538476-14.738664 9.115334-22.120037L66.926058-157.404316C69.611288-150.805633 72.754091-144.182867 76.306302-137.523978"  horiz-adv-x="1024" />

    
    <glyph glyph-name="51" unicode="&#58924;" d="M842.054563 276.928692c-12.571214 123.568768-107.035936 225.438946-234.55428 259.383631 17.315522 19.001317 28.345437 42.108749 28.345437 69.238006 0 50.260771-39.363311 92.36952-92.863217 104.591533L542.982502 714.223895 542.982502 757.681279l184.173095 0c17.315522 0 31.476199 12.222013 31.476199 27.165381C758.631797 799.777987 744.459078 812 727.155597 812L412.309313 812c-103.881091 0-188.893321-73.332079-188.893321-162.956162l0-40.760113c0-14.943368 14.172719-27.141298 31.488241-27.141298 17.303481 0 31.464158 12.19793 31.464158 27.141298l0 40.760113c0 59.749389 56.678833 108.637441 125.928881 108.637441l67.696707 0L479.993979 714.223895l0-4.069991c-55.101411-10.861336-97.607526-54.330762-97.607526-105.940169 0-27.15334 11.029915-51.609407 29.910818-70.610724-124.3635-35.329445-217.226717-135.802822-229.822013-258.022954-1.565381-5.430668-1.565381-10.873377-1.565381-16.304045l0-340.855691c0-71.971402 50.381185-130.408278 113.345626-130.408278l432.900094 0c62.940357 0 113.333584 58.448918 113.333584 130.408278l0 342.216369C843.631985 266.079398 843.631985 271.485983 842.054563 276.928692M511.494262 659.893133c34.606961 0 62.940357-24.444026 62.940357-54.330762 0-29.850611-28.345437-54.306679-62.940357-54.306679-34.631044 0-62.976482 24.444026-62.976482 54.306679C448.51778 635.449106 476.863217 659.893133 511.494262 659.893133M780.643462-80.243086c0-43.445343-26.743932-76.01731-50.357103-76.01731L297.398307-156.260395c-23.61317 0-50.357103 32.571966-50.357103 76.01731L247.041204 260.636689l0 8.139981 0 1.372719 0 1.336595c14.148636 126.314205 127.506303 222.729633 266.03048 222.729633 138.500094 0 253.435183-95.054751 266.018438-222.729633l0-1.336595 0-1.372719 0-8.139981 0-340.879774L780.643462-80.243086zM387.118721 223.958608l157.429163 0c17.303481 0 31.464158 12.222013 31.464158 27.177422 0 14.943368-14.172719 27.141298-31.464158 27.141298L387.118721 278.277328c-17.315522 0-31.488241-12.19793-31.488241-27.141298C355.63048 236.180621 369.791157 223.958608 387.118721 223.958608M638.988523 142.486548 387.118721 142.486548c-17.315522 0-31.488241-12.234055-31.488241-27.189464 0-14.907244 14.172719-27.15334 31.488241-27.15334l251.869802 0c17.303481 0 31.488241 12.246096 31.488241 27.15334C670.488805 130.264534 656.292004 142.486548 638.988523 142.486548M638.988523 6.671684 387.118721 6.671684c-17.315522 0-31.488241-12.209972-31.488241-27.15334 0-14.955409 14.172719-27.177422 31.488241-27.177422l251.869802 0c17.303481 0 31.488241 12.222013 31.488241 27.177422C670.488805-5.538288 656.292004 6.671684 638.988523 6.671684"  horiz-adv-x="1024" />

    
    <glyph glyph-name="52" unicode="&#58925;" d="M366.756726 136.345437l42.542239-0.361242 0 0.758608 121.4254 0c69.418627 0 125.688053 56.38984 125.688053 125.892756l0 119.233866-42.55428 0 0-124.038382c0-43.613923-35.233114-78.931326-78.678457-78.931326L409.636124 178.899718l0-0.08429-44.071496 0 0 0.08429L121.244779 178.899718c-43.517592 0-78.690499 35.221072-78.690499 78.931326l0 433.128881c0 43.601881 35.257197 78.895202 78.690499 78.895202l413.92286 0c43.50555 0 78.678457-35.221072 78.678457-78.895202l0-186.027469 42.55428 0L656.400376 686.107244C656.412418 755.754657 600.227281 812 530.724365 812l-405.072437 0C56.233302 812 0 755.598119 0 686.107244l0-423.483725c0-69.647413 56.197178-125.892756 125.66397-125.892756l241.104798 0L366.768768 136.345437zM897.481091 463.281279 492.396613 463.281279c-69.418627 0-125.639887-56.365757-125.639887-125.892756l0-117.295202 42.542239 0L409.298965 342.229163c0 43.601881 35.245155 78.931326 78.690499 78.931326l413.898777 0c43.517592 0 78.714581-35.221072 78.714581-78.931326l0-433.116839c0-43.577799-35.233114-78.943368-78.714581-78.943368L487.989464-169.831044c-43.517592 0-78.690499 35.221072-78.690499 78.943368L409.298965 93.863405l-42.542239 0 0-179.946566c0-69.62333 56.185136-125.904798 125.639887-125.904798l405.084478 0c69.418627 0 125.700094 56.377799 125.700094 125.904798L1023.181185 337.388523C1023.193227 407.060019 966.959925 463.281279 897.481091 463.281279"  horiz-adv-x="1024" />

    
    <glyph glyph-name="53" unicode="&#58926;" d="M1023.277516 341.386265c0 50.080151-36.160301 91.863782-83.759925 100.629915L736.102352 677.353151c0.445532 3.913452 0.686359 7.899153 0.686359 11.920978 0 56.413923-45.913829 102.31571-102.351834 102.31571-33.378739 0-63.060771-16.051176-81.749012-40.844403L363.180433 733.429915c-13.847601 43.866792-53.897272 76.113641-102.195296 78.208843-3.383631 0.481656-7.26096 0.481656-9.994356 0-60.423706-2.600941-107.722295-51.874318-107.722295-112.129445l0-102.026717C58.364628 545.53603 0 441.113076 0 339.014111c0-4.973095 1.81825-9.777611 5.093509-13.522484 5.936406-6.755221 63.313641-65.974788 250.72587-65.974788 189.374976 0 245.222954 59.472437 250.966698 66.263782 3.130762 3.684666 4.852681 8.404892 4.852681 13.221449 0 102.123048-58.364628 206.546002-143.256444 258.468485l0 13.040828 184.654751 16.821825c18.700282-24.528316 48.225776-40.38683 81.399812-40.38683 5.659454 0 11.150329 0.469614 16.544873 1.336595l176.647225-204.980621c-5.79191-12.787959-8.99492-26.98476-8.99492-41.916087 0-18.688241 5.021261-36.184384 13.787394-51.272248L610.847789-47.442333 467.771966-47.442333c-54.800376 0-99.389652-45.913829-99.389652-102.327752l0-40.940734c0-11.294826 9.1635-20.422201 20.458325-20.422201l552.579492 0c11.33095 0 20.482408 9.139417 20.482408 20.422201l0 40.940734c0 56.413923-44.601317 102.327752-99.437817 102.327752l-105.265851 0 188.62841 289.571402C990.27206 253.255315 1023.277516 293.533772 1023.277516 341.386265M184.209219 699.509313c0 38.279586 30.091439 69.563123 68.912888 71.236877 1.131891 0.096331 2.239699 0.216745 2.022954 0.385325 0.698401-0.108373 3.058514-0.361242 3.732832-0.385325 35.052493-1.517215 63.205268-27.659078 67.877328-61.31477 0.048166-0.457573 0.120414-0.915146 0.192662-1.372719 0.337159-2.805644 0.505738-5.671496 0.505738-8.549389l0-70.044779 0-0.457573 0-38.664911c-44.733772-4.515522-98.655127-4.515522-143.244403 0L184.209219 699.509313zM470.529445 347.984948c-16.52079-12.691627-74.668674-47.515334-214.710066-47.515334-140.101599 0-198.249483 34.847789-214.710066 47.491251 3.154845 78.642333 47.214299 160.042145 109.685042 205.341863 31.692944-4.816557 66.986265-7.285042 105.025024-7.285042 37.990593 0 73.283913 2.468485 105.049106 7.285042C423.339229 508.00301 467.386642 426.627281 470.529445 347.984948M368.382314 651.632738 368.382314 692.790216l165.436689 15.160113c-1.131891-6.05682-1.721919-12.294262-1.721919-18.664158 0-7.730574 0.86698-15.292568 2.50461-22.517404L368.382314 651.632738zM634.436877 627.875071c-22.589652 0-42.361618 12.258137-53.01825 30.476764-0.216745 0.409407-0.445532 0.806773-0.686359 1.216181-4.900847 8.802258-7.682408 18.917027-7.682408 29.706115 0 11.318909 3.082596 21.9635 8.47714 31.054751 0.144497 0.276952 0.288993 0.541863 0.457573 0.806773 10.777046 17.688805 30.260019 29.525494 52.440263 29.525494 33.848354 0 61.411101-27.538664 61.411101-61.387018 0-4.346943-0.445532-8.537347-1.288429-12.619379-0.204704-0.590028-0.288993-1.168015-0.385325-1.746002C687.647789 647.948071 663.324177 627.875071 634.436877 627.875071M691.28429 604.225776c11.427281 7.646284 21.216933 17.55635 28.778928 29.079962L888.534337 438.439887c-13.546566-4.527563-25.816745-11.800564-36.160301-21.168768L691.28429 604.225776zM862.464722-88.383067c32.25889 0 58.485042-27.50254 58.485042-61.387018l0-20.458325-511.638758 0 0 20.458325c0 33.872437 26.238194 61.387018 58.46096 61.387018l153.780621 0 0.614111 0 96.933208 0 0.614111 0L862.464722-88.383067zM708.346943-47.442333l-48.550894 0 200.970837 306.116275c10.656632-7.778739 22.854563-13.522484 36.088053-16.737535L708.346943-47.442333zM930.041016 280.661524c-2.962183-0.457573-6.008655-0.674318-9.091251-0.674318-33.860395 0-61.387018 27.550706-61.387018 61.387018 0 33.860395 27.526623 61.387018 61.387018 61.387018 1.721919 0 3.45588-0.048166 5.141675-0.192662 0.638194-0.108373 1.264346-0.180621 1.90254-0.204704 30.549012-3.504045 54.366886-29.513452 54.366886-60.989652 0-30.609219-22.541486-56.04064-51.886359-60.676576C930.366134 280.70969 930.185513 280.685607 930.041016 280.661524"  horiz-adv-x="1024" />

    
    <glyph glyph-name="44" unicode="&#58927;" d="M960.481656-28.453057 441.94318-28.453057c-20.109125 0-42.048542-21.975541-42.048542-42.024459 0-19.988711 21.939417-28.008278 42.048542-28.008278l518.538476 0c20.121167 0 42.024459 8.019567 42.024459 28.008278C1002.506115-50.428598 980.602822-28.453057 960.481656-28.453057M960.481656 321.915334 441.94318 321.915334c-20.109125 0-42.048542-21.987582-42.048542-42.0365 0-20.012794 21.939417-28.02032 42.048542-28.02032l518.538476 0c20.121167 0 42.024459 8.007526 42.024459 28.02032C1002.506115 299.927752 980.602822 321.915334 960.481656 321.915334M441.94318 602.214864l518.538476 0c20.121167 0 42.024459 8.019567 42.024459 28.032361 0 20.048918-21.903293 42.048542-42.024459 42.048542L441.94318 672.295767c-20.109125 0-42.048542-21.999624-42.048542-42.048542C399.894638 610.234431 421.834055 602.214864 441.94318 602.214864M273.773095 420.028598 63.554468 420.028598c-20.097084 0-42.048542-8.031609-42.048542-28.032361l0-210.218627c0-19.988711 21.939417-28.044403 42.048542-28.044403l210.218627 0c20.121167 0 42.048542 8.055691 42.048542 28.044403L315.821637 391.996237C315.821637 411.984948 293.894262 420.028598 273.773095 420.028598M259.768956 209.809972 77.58269 209.809972 77.58269 363.975917l182.186265 0M273.773095 69.696331 63.554468 69.696331c-20.097084 0-42.048542-8.055691-42.048542-28.044403l0-210.242709c0-19.988711 22.156162-41.988335 42.253246-41.988335l218.575353 0c20.085042 0 33.475071 21.999624 33.475071 41.988335l0 210.242709C315.821637 61.64064 293.894262 69.696331 273.773095 69.696331M245.752775-154.5746 77.58269-154.5746 77.58269 13.607526l182.186265 0 0-168.182126L245.752775-154.5746zM360.025588 805.810724c-15.172154 10.837253-32.668297 6.863594-44.203951-7.405456L147.639511 588.198683l-63.409972 63.590593c-12.234055 13.570649-35.413735 15.449106-49.767074 3.997742-7.52587-5.972531-12.041392-14.389464-12.836124-23.769708-0.794732-9.247789 2.25174-18.218627 8.56143-25.286924l84.434243-94.019191c6.779304-7.549953 16.629163-11.84873 26.996802-11.84873 0.096331 0 0.770649 0 0.86698 0.012041 10.740922 0.264911 20.675071 5.021261 27.261712 13.197366L357.858137 756.368768c5.912324 7.345249 17.447977 17.086736 16.219755 26.310442C372.813547 791.999247 367.816369 800.199436 360.025588 805.810724"  horiz-adv-x="1024" />

    
    <glyph glyph-name="45" unicode="&#58928;" d="M880.477826-211.831563l-711.451295-0.156395c-26.057755 0-66.455696 11.946145-66.455696 64.939871L102.570836-17.457073l-43.694259-1.251157c-19.621513 0-38.196386 9.888954-38.196386 27.176578 0 17.323715 21.305764 25.925421 40.951338 25.925421l40.927277 0L102.558806 176.917416 61.643559 176.917416c-19.645574 0-38.292629 9.528043-38.292629 26.887849 0 17.251533 18.647054 24.938932 38.292629 24.938932l40.927277 0L102.570836 371.279875 61.643559 371.279875c-19.645574 0-37.534716 7.290397-37.534716 24.650203 0 17.287624 17.889142 27.200639 37.534716 27.200639l40.927277 0L102.570836 565.666395 61.643559 565.666395c-19.645574 0-40.951338 8.577645-40.951338 25.90136 0 17.287624 15.928194 27.104396 35.561737 27.104396l46.328908-1.178975L102.582866 747.072159C102.570836 779.109002 118.631363 812 170.819055 812l736.955653-0.132334c60.236001 0 95.533071-11.741629 95.533071-64.807537l0-863.130045c-0.036091-52.993726-48.747009-95.930072-108.934889-95.930072L880.477826-211.831563zM170.819055 760.028855c-0.108273-0.565427-13.642426-12.198783-13.642426-12.956695l0-129.578983 46.545454 1.178975c19.621513 0 35.345191-9.780681 35.345191-27.104396s-21.305764-25.90136-40.951338-25.90136l-40.939307 0 0-142.535678 54.581733 0c19.645574 0 30.893959-9.949106 30.893959-27.23673 0-17.323715-11.260415-24.614112-30.893959-24.614112l-54.581733 0 0-142.523648 54.581733 0c19.645574 0 30.099955-7.759581 30.099955-24.975023 0-17.359806-10.466411-26.851758-30.099955-26.851758l-54.581733 0 0-142.535678 54.581733 0c19.645574 0 27.308912-8.601706 27.308912-25.925421 0-17.287624-13.12512-27.2247-32.734603-27.2247l-49.144011 1.299279 0-142.535678 13.642426 0 586.85288 0L757.683965 760.028855 170.819055 760.028855M948.726046 747.072159c-17.913203 13.630395-17.50417 13.77476-40.951338 12.956695l-95.52104 0 0-920.021606 81.866584 0c20.066637 0 54.617824 21.19749 54.617824 38.858055L948.738076 734.103434 948.738076 747.072159z"  horiz-adv-x="1024" />

    
    <glyph glyph-name="46" unicode="&#58929;" d="M780.691627-104.217498 243.320414-104.217498c-14.798871 0-26.876388 12.065475-26.876388 26.972719 0 14.895202 12.077516 26.960677 26.876388 26.960677l537.371214 0c14.859078 0 26.876388-12.065475 26.876388-26.960677C807.568015-92.152023 795.550706-104.217498 780.691627-104.217498M888.221261 704.205456c-14.834995 0-26.852305-12.053434-26.852305-26.960677l0-808.422954c0-14.822954-12.041392-26.888429-26.876388-26.888429L243.320414-158.066604c-44.408655 0-80.593039 36.268674-80.593039 80.833866 0 44.553151 36.172342 80.821825 80.593039 80.821825l483.678645 0c44.420696 0 80.568956 36.268674 80.568956 80.821825L807.568015 731.178175C807.568015 775.731326 771.419755 812 726.999059 812L189.615804 812c-44.504986 0-80.665287-36.268674-80.665287-80.821825l0-808.410913c0-74.271308 60.291251-134.755221 134.357855-134.755221l591.160113 0c44.408655 0 80.568956 36.268674 80.568956 80.821825L915.037441 677.244779C915.049483 692.152023 903.032173 704.205456 888.221261 704.205456M189.615804 758.066604l537.383255 0c14.834995 0 26.876388-12.053434 26.876388-26.888429l0-646.767262c0-14.822954-12.041392-26.888429-26.876388-26.888429L243.320414 57.522484c-30.163688 0-58.123801-10.11477-80.593039-27.032926L162.727375 731.178175C162.727375 746.01317 174.768768 758.066604 189.615804 758.066604"  horiz-adv-x="1024" />

    
    <glyph glyph-name="47" unicode="&#58930;" d="M993.285714 482.186265c-11.162371 21.686548-16.725494 45.227469-30.35635 65.661712-26.021449 49.562371-61.952963 95.403951-104.097836 134.454186-22.300659 14.244967-40.880527 32.210724-63.181185 46.455691-19.820132 13.016745-41.494638 23.540922-61.952963 34.691251-31.572531 12.390593-61.965005 25.407338-94.777799 33.438946-13.028786 1.240263-24.155033 7.453622-37.171778 7.453622l-53.921355 6.189276c-27.85174 3.082596-56.967827 0.626152-85.481844-1.240263-63.795296-4.949012-120.185136-26.03349-176.550894-50.790593C188.523343 710.177987 101.187125 626.538476 53.49117 527.413735c-35.943556-74.957667-55.763688-160.451552-53.283161-242.236689 0-10.512135 3.082596-25.997366 1.854374-35.919473 4.973095-19.193979 4.346943-37.147695 9.295955-55.113452 29.742239-138.162935 118.330762-267.017874 248.425964-339.482973 23.528881-17.339605 50.790593-24.793227 76.812041-35.341486 91.683161-34.667168 207.533396-40.868485 304.201693-14.847037 138.126811 31.596613 265.753528 131.323424 329.548824 262.044779 1.264346 1.252305 3.130762 1.252305 1.890499 3.732832C1034.190323 195.360301 1044.7145 347.768203 993.285714 482.186265M402.270097 581.925118c16.111383 13.630856 35.919473 24.793227 60.086548 19.218062 17.339605-4.346943 32.210724-16.725494 41.518721-32.824835 8.669802-16.111383 11.776482-42.758984 0-58.870367-10.524177-17.953716-30.970461-32.836877-52.042897-33.438946-24.155033 1.228222-50.188523 11.776482-59.460395 36.533584C379.355328 535.457385 386.784867 562.104986 402.270097 581.925118M959.220615 97.463782c-40.892568-94.765757-125.760301-185.846849-219.321919-230.460207-29.116087-15.449106-58.870367-29.706115-91.06905-34.691251-14.244967 0-26.647601-3.708749-40.90461-3.708749l-37.147695 3.708749c-8.055691 1.866416-15.497272 7.44158-24.167074 5.611289-42.12079 6.779304-81.158984 29.730198-113.38175 60.074506-58.846284 60.724741-82.387206 150.529445-58.846284 229.195861 11.776482 39.038194 35.305362 76.209972 66.287865 104.085795 37.79793 26.659643 76.209972 51.428786 112.755597 81.785136 43.987206 31.596613 92.935466 65.685795 113.983819 116.476388 17.339605 25.383255 20.446284 56.353716 26.021449 86.710066 9.283913 90.454939-35.305362 184.004516-117.114581 231.086359-16.099341 11.162371-35.293321 16.111383-52.018815 25.407338-19.193979 3.094638-35.919473 11.138288-54.535466 11.138288-1.854374 1.252305 0.638194 1.252305-0.60207 1.854374 44.601317 7.453622 102.231421 2.50461 149.301223-7.429539C744.847708 751.672625 865.056927 667.431044 931.958903 554.687488l19.206021-34.07714C1017.464829 395.452117 1020.559467 223.248166 959.220615 97.463782M650.696062 77.04158c8.067733-24.179116 2.468485-52.66905-16.725494-70.622766-17.977799-12.992662-40.892568-24.167074-63.819379-16.111383-17.339605 6.201317-35.305362 19.218062-43.987206 35.317404-8.067733 17.339605-5.587206 39.640263 2.480527 56.377799 11.776482 22.91477 37.183819 31.584572 58.858325 39.640263C615.366617 122.257008 640.147802 101.822766 650.696062 77.04158"  horiz-adv-x="1027" />

    
    <glyph glyph-name="48" unicode="&#58931;" d="M1023.987959 137.128128c0-175.214299-68.67206-232.579492-93.104045-232.723989 0-36.389087-20.458325-92.008278-93.067921-93.079962-71.453622-1.071684-93.079962 69.79191-93.079962 69.79191s-233.85588-0.3492-255.987959 0c-30.850047 0.577987-28.827093 46.901223 0 46.576105 20.542615-0.541863 302.52794 0 302.52794 0s-3.082596-69.828034 46.539981-69.828034c49.598495 0 44.095579 67.419755 46.515898 69.828034 59.002822 0 93.104045 135.224835 93.104045 209.447977 0 21.770837-5.201881 209.423895-69.828034 209.423895s-85.132643-139.896896-93.079962-162.895955c-80.978363 27.33396-108.649483 46.539981-302.515898 46.539981-193.914581 0-302.070367-51.862277-302.552023-46.539981-0.493697 5.286171-26.358608 162.895955-93.092004 162.895955-66.721355 0-69.803951-171.601881-69.803951-209.423895 0-175.033678 48.719473-196.852681 93.067921-209.447977 0-31.452117-2.576858-69.828034 46.552023-69.828034 49.152963 0 45.070931 33.872437 46.552023 46.539981 0.722484 33.968768 45.636877 23.685419 45.420132 0.216745-0.180621-23.504798-14.810913-93.296707-91.972154-93.296707-78.822954-0.036124-93.079962 63.927752-93.079962 93.079962-34.606961 0-93.092004 48.406397-93.092004 232.723989 0 99.955597 17.339605 229.569144 92.514017 252.170837 0 280.865475 45.022766 399.388899 419.498024 399.388899 361.374224 0 417.72794-97.258325 417.72794-399.099906C1004.793979 367.443838 1023.987959 257.578175 1023.987959 137.128128M512.024083 742.147883c-330.512135 0-370.670179-112.599059-370.670179-351.921731 73.621072-16.159548 88.21524-140.342427 91.382126-152.275447 17.785136 13.088993 92.911383 38.773283 279.276011 38.773283 209.544309 0 242.116275-19.362559 279.251929-38.773283-3.335466 7.489746 17.809219 134.044779 90.069614 151.78175C881.345626 632.125682 842.500094 742.147883 512.024083 742.147883"  horiz-adv-x="1024" />

    
    <glyph glyph-name="49" unicode="&#58932;" d="M769.396802 739.137535l-1.890499 1.095767c-15.13603 8.56143-34.281844 3.419755-43.060019-11.487488l-17.315522-29.633866c-8.970837-15.22032-3.624459-34.859831 11.692192-43.541675l1.90254-1.095767c15.13603-8.56143 34.269802-3.431797 43.035936 11.487488l17.327563 29.633866C789.9635 710.804139 784.725494 730.467733 769.396802 739.137535M284.441769 693.368203l-18.062088 30.753716c-8.549389 14.70254-27.394167 19.747883-42.12079 11.294826l-3.010348-1.709878c-15.027658-8.573471-20.145249-27.815616-11.487488-42.734901l18.038006-30.741675c8.56143-14.714581 27.406209-19.759925 42.144873-11.294826l3.010348 1.709878C288.066228 659.206773 293.195861 678.364628 284.441769 693.368203M622.058325-147.072813 403.555221-147.072813c-15.425024 0-29.730198-10.367639-32.451552-25.587959-3.6365-19.97667 11.583819-37.292192 30.934337-37.292192l219.225588 0c13.703104 0 26.695767 8.260395 30.825964 21.27714C658.748448-167.013358 642.733396-147.072813 622.058325-147.072813M513.709878 812l-3.311383 0c-17.243274 0-31.259454-14.004139-31.259454-31.247413l0-34.871872c0-17.231232 14.016181-31.247413 31.259454-31.247413l3.311383 0c17.243274 0 31.271496 14.016181 31.271496 31.247413L544.981373 780.752587C544.981373 797.995861 530.953151 812 513.709878 812M52.307808 483.137535l30.95842-17.628598c14.907244-8.47714 33.956726-3.431797 42.63857 11.367074l1.204139 2.022954c8.862465 15.111947 3.6365 34.462465-11.583819 43.132267l-30.95842 17.64064c-14.895202 8.465099-33.944685 3.431797-42.626529-11.391157l-1.216181-2.022954C31.849483 511.157855 37.111571 491.807338 52.307808 483.137535M488.507244 654.07714C307.898401 642.577611 161.475071 495.227093 151.09539 314.53396c-8.380809-145.941675 69.840075-274.435372 188.062465-338.929069l0-12.595296 0-15.726058c0-26.009407 21.168768-47.190216 47.178175-47.190216l15.701976 0 220.128692 0 15.726058 0c25.997366 0 47.166134 21.180809 47.166134 47.190216l0 15.726058 0 12.595296c112.382314 61.374976 188.676576 180.596802 188.676576 317.555597C873.639135 500.669802 698.858325 667.370837 488.507244 654.07714M648.537347 18.881656l-23.408467-10.572342 0-54.065851L398.979492-45.756538l0 53.162747-23.408467 11.475447c-111.960865 55.727563-185.220696 177.453998-168.013547 314.37667C224.957291 472.179868 337.761054 583.213547 476.983631 598.662653c185.220696 20.602822 342.168203-123.905927 342.168203-305.080715C819.139793 173.131891 749.516463 69.130386 648.537347 18.881656M939.336971 539.575541l-30.524929-17.351646c-15.340734-8.754092-20.590781-28.321355-11.704233-43.529633l0.903104-1.517215c8.766134-14.907244 27.923989-20.048918 43.023895-11.475447l30.536971 17.315522c15.316651 8.778175 20.578739 28.321355 11.692192 43.553716l-0.903104 1.505174C973.594732 542.995296 954.436877 548.136971 939.336971 539.575541M692.801505 382.050047c-0.301035-2.733396 0.216745-5.141675 0.818815-7.549953l-0.108373 0c0-0.108373 0.108373-0.108373 0.108373-0.216745 0.686359-3.118721 2.010913-5.948448 3.913452-8.356726 3.251176-6.562559 10.500094-18.844779 11.078081-18.351082 4.057949-4.431232 9.898024-7.152587 16.340169-7.152587 12.691627 0 22.974976 10.488053 22.974976 23.372342-0.096331 6.562559-3.022389 11.692192-4.828598 17.749012-3.142803 7.95936-14.220884 20.771402-15.316651 19.856256-3.118721 2.50461-6.767262 4.431232-10.885419 4.527563C705.204139 406.337535 694.041769 395.452117 692.801505 382.050047M703.385889 437.380245c0.710442 7.850988-2.095202 14.70254-6.839511 19.254186l0.096331 0.096331c-36.58175 43.541675-87.890122 75.102164-155.490499 87.974412 0-0.192662-0.108373-0.301035-0.216745-0.493697-1.721919 0.288993-3.335466 0.903104-5.045343 0.806773-13.004704-0.108373-23.793791-10.789087-23.890122-23.793791 0-9.175541 5.948448-16.544873 14.413547-19.952587-0.108373-0.216745-0.204704-0.409407-0.204704-0.614111 58.966698-10.367639 101.484854-37.773848 132.816557-74.789087 0.51778 0.421449 11.114205-12.474882 19.868297-12.571214C691.308373 413.309501 702.169708 423.978175 703.385889 437.380245"  horiz-adv-x="1024" />

    
    <glyph glyph-name="58" unicode="&#58933;" d="M163.907432 800.825588l0-188.447789L0 612.377799l0-312.967827 0-311.691439c0-104.182126 82.603951-188.556162 184.38984-188.556162l654.497836 0c102.002634 0 184.522295 84.458325 184.522295 188.556162l0 52.440263L1023.409972 299.422013 1023.409972 612.365757 1023.409972 800.825588 163.907432 800.825588zM60.243086 254.868862 60.243086 552.146754l103.664346 0 0-487.134525c0-96.487676-33.113829-131.022389-59.580809-143.063782-27.346002 31.476199-44.095579 72.826341-44.095579 118.222389L60.231044 254.868862zM222.898213 738.05381l739.088617 0 0-483.184948 0-214.698024c0-98.390216-78.064346-178.224647-174.287112-178.224647L234.373659-138.05381c-19.145814 0-37.496896 3.359548-54.595673 9.139417 49.863405 44.697648 43.120226 169.08523 43.120226 169.08523l0 58.834243L222.898213 738.05381zM306.116275 612.365757l554.63857 0 0-78.53396L306.116275 533.831797 306.116275 612.365757zM306.116275 440.872248l205.630856 0 0-52.392098L306.116275 388.480151 306.116275 440.872248zM572.568203 440.872248 860.718721 440.872248l0-366.865099L572.568203 74.00715 572.568203 440.872248zM306.116275 335.883349l205.630856 0 0-52.392098L306.116275 283.491251 306.116275 335.883349zM306.116275 232.399624l205.630856 0 0-52.331891L306.116275 180.067733 306.116275 232.399624zM306.116275 126.411289l205.630856 0 0-52.392098L306.116275 74.019191 306.116275 126.411289z"  horiz-adv-x="1024" />

    
    <glyph glyph-name="59" unicode="&#58934;" d="M833.770085 812 190.229915 812C120.450047 812 62.940357 754.923801 62.940357 684.577987l0-767.590593c0-70.2254 56.979868-127.422013 127.289558-127.422013l643.540169 0c69.779868 0 127.277516 57.064158 127.277516 127.422013L961.047601 684.577987C961.059643 754.803387 904.067733 812 833.770085 812M897.180056-82.169708c0-35.534149-28.526058-64.3492-63.783255-64.3492L190.61524-146.518909c-35.19699 0-63.783255 28.742803-63.783255 64.3492L126.831985 683.759172c0 35.510066 28.514017 64.337159 63.783255 64.337159l387.058514 0L577.673754 428.60207l95.849483 63.903669 95.861524-63.903669L769.38476 748.096331l64.012041 0c35.209031 0 63.783255-28.766886 63.783255-64.337159L897.180056-82.169708z"  horiz-adv-x="1024" />

    
    <glyph glyph-name="60" unicode="&#58935;" d="M988.875259 495.239135 401.881468-91.814864l-17.55635 17.55635 17.55635-17.55635L0-201.921355l16.243838 50.296896 100.485419 335.497272 22.204327-12.739793-22.204327 12.739793L708.371025 775.683161c48.442521 48.418438 126.880151 48.418438 175.31063 0l105.16952-105.145437C1037.269614 622.095202 1037.269614 543.657573 988.875259 495.239135M72.609595-135.874318l298.831232 83.735842 30.922295 30.95842L192.012041 189.195108l-31.247413-31.187206L72.609595-135.874318zM227.064534 224.23556l210.387206-210.375165 411.189464 411.213547L638.26604 635.449106 227.064534 224.23556zM943.515334 645.732455 858.90047 730.35936c-48.418438 48.418438-77.305738 48.418438-125.688053 0l-59.857761-59.869802L883.705738 460.150517l59.84572 59.869802C991.969897 568.462841 991.969897 597.314017 943.515334 645.732455M367.888617 724.410913c-48.406397 48.418438-77.305738 48.418438-125.712135 0L42.060583 524.355221l-35.052493 35.040452L217.359172 769.758796c48.418438 48.418438 126.904233 48.418438 175.31063 0l115.874318-115.898401-35.052493-35.064534L367.888617 724.410913zM129.697836 506.78683l70.153151 70.104986 35.064534-35.040452-70.14111-70.129069-4.15428 4.15428 39.194732-39.218815 105.157479 105.193603 35.076576-35.064534-105.157479-105.193603 10.716839-10.692756-35.1127-35.064534L42.0365 524.355221l35.100659 35.040452L129.697836 506.78683zM620.601317 15.931515l105.145437-105.16952 52.596802-52.596802 165.039323 165.039323c48.418438 48.442521 48.418438 77.353904 0 125.760301l-110.660395 110.672437 35.040452 35.040452L988.718721 173.709878c48.418438-48.418438 48.418438-126.880151 0-175.298589L813.420132-176.8873l-35.064534-35.040452-35.040452 35.040452L569.726435-3.31063l35.064534 35.040452L620.601317 15.931515zM760.847413 86.024459l-105.16952-105.157479-35.064534 35.064534 105.145437 105.217686L760.847413 86.024459zM778.355597 33.487865l35.064534-35.088617-87.637253-87.637253-35.040452 35.088617L778.355597 33.487865z"  horiz-adv-x="1026" />

    
    <glyph glyph-name="61" unicode="&#58936;" d="M963.323424 812 57.882973 812C26.093697 812 0 785.906303 0 754.117027l0-940.613358c0-12.462841 10.199059-22.673942 23.817874-22.673942 12.474882 0 23.829915 10.211101 23.829915 23.829915l0 65.794167c3.419755-1.131891 6.827469-1.131891 11.342992-1.131891l905.440452 0c3.395673 0 6.815428 0 11.367074 1.131891l0-65.794167c0-12.462841 10.211101-23.829915 23.805833-23.829915 12.511007 0 23.829915 10.211101 23.829915 23.829915L1023.434055-62.80715 1023.434055 754.117027C1021.170273 785.906303 995.076576 812 963.323424 812M974.642333-62.80715c0-5.659454-4.527563-11.342992-11.318909-11.342992L57.882973-74.150141c-5.683537 0-11.367074 4.551646-11.367074 11.342992L46.515898 169.808467l928.138476 0L974.654374-62.80715zM974.642333 216.312324 263.224835 216.312324l0 111.190216c0 6.791345-5.659454 11.342992-11.342992 11.342992-6.803387 0-11.342992-5.683537-11.342992-11.342992l0-111.190216-70.345814 0 0 49.923612c0 6.803387-5.683537 11.33095-11.342992 11.33095-6.815428 0-11.367074-5.683537-11.367074-11.33095l0-49.923612L46.503857 216.312324 46.503857 476.141486l928.138476 0L974.642333 216.312324zM974.642333 522.681468l-73.753528 0 0 111.202258c0 6.791345-5.683537 11.342992-11.355033 11.342992-6.791345 0-11.318909-5.683537-11.318909-11.342992l0-111.202258-81.700847 0 0 64.674318c0 6.815428-5.683537 11.342992-11.318909 11.342992-6.827469 0-11.355033-5.683537-11.355033-11.342992l0-64.674318L47.647789 522.681468 47.647789 754.117027c0 5.683537 4.551646 11.342992 11.342992 11.342992l905.440452 0c5.695579 0 11.367074-4.527563 11.367074-11.342992l0-231.447601L974.642333 522.669426zM548.027846 669.044591l-74.885419 0c-12.486924 0-23.817874-10.211101-23.817874-23.829915 0-12.498965 10.199059-23.841957 23.817874-23.841957l74.885419 0c12.474882 0 23.829915 10.211101 23.829915 23.841957C571.84572 658.83349 560.502728 669.044591 548.027846 669.044591M473.142427 321.831044l74.885419 0c12.474882 0 23.829915 10.211101 23.829915 23.817874 0 13.630856-11.342992 23.829915-23.829915 23.829915l-74.885419 0c-12.486924 0-23.817874-10.187018-23.817874-23.829915C449.324553 332.042145 460.655503 321.831044 473.142427 321.831044M473.142427 29.092756l74.885419 0c12.474882 0 23.829915 10.211101 23.829915 23.829915 0 13.630856-10.223142 23.817874-23.829915 23.817874l-74.885419 0c-12.486924 0-23.817874-10.187018-23.817874-23.817874C449.324553 39.303857 460.655503 29.092756 473.142427 29.092756"  horiz-adv-x="1024" />

    
    </font>
</defs>
</svg>
